<?xml version="1.0" encoding="UTF-8"?>
<svg version="1.1" xmlns="http://www.w3.org/2000/svg" viewBox="1038 834 2020 860">
<path d="M0 0 C4.27624211 1.54860837 8.07810445 3.70058644 11.9609375 6.03515625 C12.6285611 6.43270615 13.29618469 6.83025604 13.98403931 7.23985291 C16.11638527 8.51070902 18.24571436 9.78652449 20.375 11.0625 C21.76673281 11.89290382 23.15865836 12.72298468 24.55078125 13.55273438 C25.23771057 13.96276703 25.92463989 14.37279968 26.63238525 14.79525757 C28.0168321 15.62110827 29.40204513 16.44567593 30.7880249 17.26895142 C34.29159733 19.35568266 37.76688124 21.47517801 41.20800781 23.66357422 C41.88384918 24.08698593 42.55969055 24.51039764 43.25601196 24.94664001 C44.53596985 25.75009502 45.80878675 26.56508205 47.07284546 27.39332581 C49.63507627 28.98903656 51.48051298 30.00145108 54.53466797 29.99291992 C57.76822757 28.69059403 60.36686926 26.93670927 63.21875 24.9296875 C64.4099077 24.10771262 65.60132175 23.28610911 66.79296875 22.46484375 C68.65320418 21.1687337 70.50988956 19.86801532 72.36181641 18.56005859 C74.15955375 17.29512512 75.96926908 16.04909593 77.78125 14.8046875 C78.85439453 14.05171387 79.92753906 13.29874023 81.03320312 12.52294922 C84 11 84 11 86.63793945 11.09326172 C89.11076058 12.04251832 90.9058082 13.10084116 93.01171875 14.703125 C94.13416992 15.54520508 94.13416992 15.54520508 95.27929688 16.40429688 C96.07400391 17.01337891 96.86871094 17.62246094 97.6875 18.25 C99.39909312 19.53731831 101.11134819 20.8237569 102.82421875 22.109375 C103.68966309 22.76228516 104.55510742 23.41519531 105.44677734 24.08789062 C109.26062669 26.94408379 113.128121 29.72327161 117 32.5 C123.19738741 36.95902126 129.35977677 41.46260857 135.5 46 C144.61748366 52.73553059 153.79940769 59.37863637 163 66 C165.9800339 68.14463237 168.9592686 70.29036515 171.9375 72.4375 C172.66735107 72.96327637 173.39720215 73.48905273 174.14916992 74.03076172 C178.19015556 76.94834184 182.21165824 79.89010521 186.21484375 82.859375 C187.0766626 83.49818604 187.93848145 84.13699707 188.82641602 84.79516602 C190.48918435 86.02977827 192.14992887 87.26712223 193.80834961 88.50756836 C194.55995361 89.06581299 195.31155762 89.62405762 196.0859375 90.19921875 C196.7464209 90.69252686 197.4069043 91.18583496 198.08740234 91.6940918 C198.71855957 92.1250415 199.3497168 92.55599121 200 93 C200.64251709 93.43981201 201.28503418 93.87962402 201.94702148 94.33276367 C204.05095565 95.25783752 204.05095565 95.25783752 206.26049805 94.10400391 C207.49860229 93.29842041 207.49860229 93.29842041 208.76171875 92.4765625 C209.70265381 91.87593994 210.64358887 91.27531738 211.61303711 90.65649414 C212.62760986 89.98610107 213.64218262 89.31570801 214.6875 88.625 C215.7504126 87.94107178 216.8133252 87.25714355 217.90844727 86.55249023 C220.15509859 85.10535191 222.39750763 83.6533452 224.63476562 82.19189453 C228.85294286 79.43879202 233.10324801 76.73655732 237.3515625 74.03027344 C241.52211212 71.37088816 245.68368923 68.69761885 249.84570312 66.02490234 C255.12331547 62.63693665 260.40535804 59.25589767 265.6875 55.875 C266.72277832 55.21209961 267.75805664 54.54919922 268.82470703 53.86621094 C276.53844401 48.92912814 284.26538542 44.01308688 291.99975586 39.10839844 C296.60317808 36.18336444 301.18681419 33.23173203 305.74609375 30.23828125 C306.67059326 29.63201904 307.59509277 29.02575684 308.54760742 28.40112305 C310.3122105 27.24135366 312.07421884 26.07762397 313.83325195 24.90942383 C314.61531006 24.39532959 315.39736816 23.88123535 316.203125 23.3515625 C317.23421387 22.66827881 317.23421387 22.66827881 318.28613281 21.97119141 C320 21 320 21 322 21 C323.46466673 22.98955802 324.80122858 24.980644 326.125 27.0625 C330.56251036 33.8817438 335.1505895 40.58228059 339.8125 47.25 C344.74168668 54.31102249 349.64929244 61.38481945 354.5 68.5 C361.24566582 78.38805673 368.08502236 88.21009803 374.9296875 98.02978516 C384.6613005 111.99143654 394.3856306 125.95727296 404 140 C404.56976562 140.83208984 405.13953125 141.66417969 405.7265625 142.52148438 C409.48625619 148.01303697 413.24398104 153.50593345 417 159 C422.63188024 152.36987644 427.87381691 145.52400263 433 138.5 C438.12618309 131.47599737 443.36811976 124.63012356 449 118 C453.15236186 121.88860022 456.34268895 126.07248488 459.5625 130.75 C460.6261693 132.27613422 461.68997521 133.80217324 462.75390625 135.328125 C463.29289551 136.10478516 463.83188477 136.88144531 464.38720703 137.68164062 C466.90539698 141.30149103 469.45337218 144.90012946 472 148.5 C473.00015995 149.91655374 474.00015955 151.33322072 475 152.75 C475.495 153.45125 475.99 154.1525 476.5 154.875 C502 191 527.5 227.125 553 263.25 C553.4959668 263.95237793 553.99193359 264.65475586 554.50292969 265.37841797 C555.49408615 266.7830412 556.48433387 268.18830615 557.47363281 269.59423828 C560.10151109 273.32617235 562.7482217 277.04287849 565.421875 280.7421875 C565.97875 281.51755859 566.535625 282.29292969 567.109375 283.09179688 C568.18176951 284.58421257 569.25967866 286.07268513 570.34375 287.55664062 C570.82328125 288.22630859 571.3028125 288.89597656 571.796875 289.5859375 C572.22323242 290.1742334 572.64958984 290.7625293 573.08886719 291.36865234 C574 293 574 293 574 296 C573.22398437 295.26136719 572.44796875 294.52273438 571.6484375 293.76171875 C564.27046549 286.80775484 556.62377113 280.42337095 548.59326172 274.2421875 C546.33395359 272.4807165 544.13734393 270.64744091 541.9375 268.8125 C534.07911789 262.34630564 525.91358577 256.27101535 517.80371094 250.12597656 C513.28000055 246.69577192 508.76513001 243.25398619 504.25 239.8125 C503.37714355 239.14750488 502.50428711 238.48250977 501.60498047 237.79736328 C494.08323956 232.06617738 486.57031071 226.32352662 479.06054688 220.57666016 C476.25184512 218.42753742 473.44249147 216.27926782 470.63305664 214.13110352 C469.21546535 213.04710129 467.79798417 211.96295506 466.38061523 210.87866211 C462.80409686 208.14280481 459.22590201 205.40919047 455.64453125 202.6796875 C443.26970796 193.24383259 431.01852819 183.68189819 418.96508789 173.83813477 C414.64383018 170.31500129 410.27716674 166.85872221 405.875 163.4375 C399.3259133 158.33213872 393.02804455 152.96366375 386.75878906 147.52050781 C384.99008762 145.99143055 383.21176823 144.47439219 381.4296875 142.9609375 C374.71010827 137.24993932 368.12554397 131.42610459 361.65234375 125.4375 C359.52509466 123.48256122 357.37727748 121.57117955 355.1875 119.6875 C345.62425567 111.36649153 336.47875482 102.56901058 327.5 93.625 C326.85417969 92.98377197 326.20835937 92.34254395 325.54296875 91.68188477 C321.16104563 87.28578617 317.04260648 82.70838659 313 78 C309.90971598 74.1833749 309.90971598 74.1833749 305.54296875 72.63671875 C302.9315742 72.75869831 302.9315742 72.75869831 301.33984375 74.58203125 C287.81237581 96.09786465 285.54841454 125.20269518 280.66152954 149.69908142 C280.05263337 152.74500129 279.43795778 155.7897421 278.82269287 158.8343811 C278.52897516 160.2961823 278.23806639 161.75855129 277.95025635 163.2215271 C273.66486664 185.00270004 273.66486664 185.00270004 269 192 C265.9375 192.80419922 265.9375 192.80419922 262 193.4296875 C260.53981099 193.67610374 259.08019032 193.92590646 257.62109375 194.17871094 C256.86038574 194.30967163 256.09967773 194.44063232 255.31591797 194.57556152 C251.53731579 195.26806626 247.80233933 196.13267624 244.0625 197.0078125 C243.31822754 197.1806073 242.57395508 197.3534021 241.80712891 197.53143311 C238.76308014 198.24017392 235.72058008 198.955425 232.67822266 199.67138672 C230.41125765 200.20358078 228.14318733 200.7308564 225.875 201.2578125 C225.20090088 201.41823029 224.52680176 201.57864807 223.83227539 201.743927 C220.43510633 202.53186215 217.08443717 203.13932144 213.62280273 203.52514648 C210.11614867 203.69081234 210.11614867 203.69081234 208.16015625 205.33984375 C204.74265348 210.31407377 203.87521404 212.62203954 203.7890625 218.66015625 C203.76095965 220.02540191 203.73229503 221.3906361 203.703125 222.75585938 C203.66214375 224.89932508 203.62524725 227.04258461 203.59863281 229.1862793 C203.34650275 247.88954814 203.34650275 247.88954814 198.06640625 254.375 C193.27266842 256.91537572 188.21053954 257.83864295 182.9375 259 C150.23723319 266.70728654 118.64960522 278.81094581 88.32177734 293.15429688 C86.77611084 293.88422852 86.77611084 293.88422852 85.19921875 294.62890625 C84.29002686 295.06275635 83.38083496 295.49660645 82.4440918 295.94360352 C80.28934962 296.87493599 78.29103422 297.51881937 76 298 C81.23843117 289.5612986 86.81586179 281.38823565 92.46582031 273.22265625 C95.15685887 269.32399059 97.8273673 265.41129517 100.5 261.5 C105.43580664 254.28160081 110.38256692 247.07085625 115.33984375 239.8671875 C117.08427489 237.33226131 118.82643213 234.79579992 120.56640625 232.2578125 C125.92833892 224.44059423 131.32899652 216.65138079 136.75 208.875 C143.40731212 199.32182831 149.98661614 189.71779831 156.53515625 180.08984375 C160.89334918 173.68242634 165.28503586 167.2982681 169.68066406 160.91650391 C171.05656474 158.9178325 172.43084346 156.91805434 173.8046875 154.91796875 C174.27181152 154.23806885 174.73893555 153.55816895 175.22021484 152.85766602 C176.14538582 151.51074957 177.07019968 150.16358775 177.99462891 148.81616211 C180.2005195 145.60392873 182.41638253 142.39959156 184.65625 139.2109375 C185.07310059 138.61563232 185.48995117 138.02032715 185.91943359 137.40698242 C187.05026287 135.79409652 188.18514577 134.18405485 189.3203125 132.57421875 C191.12600959 130.04460998 191.12600959 130.04460998 192 127 C191.30003906 126.74549072 190.60007812 126.49098145 189.87890625 126.22875977 C186.67785328 124.86250302 183.88628149 123.18854156 180.9375 121.33984375 C180.37023193 120.98607162 179.80296387 120.6322995 179.21850586 120.26780701 C178.04539185 119.53598568 176.87327293 118.80256684 175.70214844 118.06756592 C173.16159508 116.47416306 170.61186457 114.89566242 168.0625 113.31640625 C167.08079834 112.70780762 166.09909668 112.09920898 165.08764648 111.47216797 C134.82257844 92.75362901 103.90363952 75.22512441 72.55761719 58.38085938 C70.36730865 57.19831021 68.18534326 56.00271801 66.0078125 54.796875 C37.48255961 37.7825076 37.48255961 37.7825076 6 33 C-2.25931685 35.61247547 -7.24807451 43.26541802 -11.08447266 50.56860352 C-14.10786094 56.54373246 -16.54434392 62.42718649 -18.5625 68.8125 C-20.56609413 74.7428706 -20.56609413 74.7428706 -24.375 77 C-25.57125 77.33 -26.7675 77.66 -28 78 C-52.8436274 93.06719995 -67.04521371 140.47220924 -78.26611328 166.02758789 C-82.19764656 174.97794419 -86.21017062 183.87160958 -90.4375 192.6875 C-91.1195752 194.11243774 -91.1195752 194.11243774 -91.81542969 195.56616211 C-94.85851788 201.85851788 -94.85851788 201.85851788 -96 203 C-97.68801985 203.09353163 -99.37995207 203.11744791 -101.07055664 203.11352539 C-102.15160172 203.11344986 -103.23264679 203.11337433 -104.34645081 203.11329651 C-106.110485 203.10555458 -106.110485 203.10555458 -107.91015625 203.09765625 C-109.10732773 203.0962413 -110.30449921 203.09482635 -111.53794861 203.09336853 C-115.37949066 203.08774979 -119.22097543 203.07519411 -123.0625 203.0625 C-125.65950437 203.05748741 -128.25650965 203.05292409 -130.85351562 203.04882812 C-137.23569679 203.03777427 -143.6178443 203.02101792 -150 203 C-150.14758255 203.77126724 -150.2951651 204.54253448 -150.44721985 205.33717346 C-151.03022162 208.14558215 -151.88072186 210.7054891 -152.85546875 213.40234375 C-153.22776611 214.44608154 -153.60006348 215.48981934 -153.98364258 216.56518555 C-154.38091553 217.67804932 -154.77818848 218.79091309 -155.1875 219.9375 C-162.98382329 242.20540968 -168.57985213 264.49341521 -171 288 C-175.94300508 288.93165781 -180.81679836 289.32109342 -185.82714844 289.61669922 C-187.1317804 289.69747208 -187.1317804 289.69747208 -188.46276855 289.77987671 C-190.35157581 289.89638824 -192.24047329 290.0114443 -194.12944794 290.12520981 C-197.16608921 290.30810333 -200.20247632 290.49480868 -203.23883057 290.68240356 C-208.64766942 291.01593911 -214.05670863 291.34609263 -219.46582031 291.6751709 C-229.01391074 292.25613373 -238.56175731 292.84100802 -248.109375 293.4296875 C-249.15153294 293.49378248 -250.19369087 293.55787746 -251.26742935 293.62391472 C-267.93632506 294.65163749 -284.5955899 295.7870128 -301.24969482 297.03182983 C-314.49149166 298.0140734 -327.72465641 298.65897854 -341 299 C-338.62480319 294.61564698 -335.65509155 291.2698906 -332.25 287.6875 C-331.16460038 286.52936156 -330.07996075 285.3705104 -328.99609375 284.2109375 C-328.21661377 283.37900879 -328.21661377 283.37900879 -327.42138672 282.53027344 C-325.12068729 280.05332668 -322.90910347 277.5029999 -320.69921875 274.9453125 C-318.70593572 272.6633471 -316.66506973 270.42771426 -314.625 268.1875 C-311.55253227 264.78916448 -308.61557378 261.32409477 -305.75 257.75 C-301.09341188 251.99053574 -296.07165823 246.62051301 -291.0078125 241.22265625 C-288.15453222 238.17862987 -285.38811991 235.07033123 -282.6640625 231.91015625 C-280.68459874 229.63795489 -278.6541683 227.41540128 -276.625 225.1875 C-272.53862815 220.66655687 -268.66968693 215.99551957 -264.84765625 211.25 C-263 209 -263 209 -261 207 C-254.3768264 207.41761883 -247.93667916 208.7011054 -241.4375 210 C-235.30106991 211.22109207 -229.21972325 212.30327487 -223 213 C-222.72559082 212.41855225 -222.45118164 211.83710449 -222.16845703 211.23803711 C-221.02708488 209.05187779 -219.7694546 207.17254979 -218.3046875 205.19140625 C-217.49064453 204.08732422 -217.49064453 204.08732422 -216.66015625 202.9609375 C-216.07105469 202.16945313 -215.48195313 201.37796875 -214.875 200.5625 C-214.25753906 199.72847656 -213.64007812 198.89445312 -213.00390625 198.03515625 C-207.72136103 190.92118754 -202.34941831 183.87657862 -196.96435547 176.84008789 C-192.58134751 171.10395425 -188.26562959 165.32385044 -184 159.5 C-178.4133758 151.87259983 -172.70723662 144.34355435 -166.9609375 136.8359375 C-162.57935674 131.10097273 -158.26457042 125.32240437 -154 119.5 C-148.4133758 111.87259983 -142.70723662 104.34355435 -136.9609375 96.8359375 C-132.00048826 90.34330316 -127.13699111 83.78558876 -122.31103516 77.19262695 C-117.07939436 70.06393732 -111.72033695 63.03516118 -106.328125 56.02734375 C-103.06335006 51.77124039 -99.90074536 47.5130886 -97 43 C-89.16221206 44.43110353 -82.20526655 47.17360406 -74.875 50.25 C-73.68245605 50.74145508 -72.48991211 51.23291016 -71.26123047 51.73925781 C-66.18844863 53.83020176 -61.12551543 55.94226218 -56.078125 58.09375 C-55.39250488 58.38088867 -54.70688477 58.66802734 -54.00048828 58.96386719 C-52.26937311 59.68948432 -50.54452875 60.43001364 -48.8203125 61.171875 C-45.46327194 62.15759882 -44.26715595 62.2654604 -41 61 C-38.87962831 58.66800035 -37.29430892 56.0263777 -35.640625 53.3515625 C-34.57994301 51.69879477 -33.5180359 50.04681281 -32.45507812 48.39550781 C-31.61553589 47.0773407 -31.61553589 47.0773407 -30.7590332 45.73254395 C-27.74401351 41.04890648 -24.60906691 36.4468069 -21.484375 31.8359375 C-20.20149959 29.935114 -18.91894891 28.03407132 -17.63671875 26.1328125 C-16.34115682 24.21353425 -15.04558378 22.2942635 -13.75 20.375 C-12.40750653 18.3854474 -11.06505837 16.39586423 -9.72265625 14.40625 C-6.48229092 9.60381553 -3.24137486 4.80175314 0 0 Z " fill="#4A4A4A" transform="translate(1930,904)"/>
<path d="M0 0 C1.19944748 -0.02289345 1.19944748 -0.02289345 2.42312622 -0.04624939 C43.03262432 -0.67893342 43.03262432 -0.67893342 58.29296875 12.30859375 C64.47437185 18.41213277 67.59037006 24.9040901 67.71066284 33.65054321 C67.70616119 34.41023407 67.70165955 35.16992493 67.69702148 35.95263672 C67.70388474 36.77654907 67.71074799 37.60046143 67.71781921 38.44934082 C67.73599319 41.15000054 67.73226284 43.850074 67.7265625 46.55078125 C67.7311292 48.4435342 67.73643622 50.3362855 67.7424469 52.22903442 C67.75135986 56.18807732 67.74897604 60.14691831 67.73901367 64.10595703 C67.72753342 69.15848676 67.74773036 74.2103166 67.77693081 79.26275444 C67.79535234 83.16977302 67.7949884 87.07662576 67.78929329 90.98367691 C67.78914076 92.84544989 67.79512769 94.7072346 67.80758476 96.56896591 C67.87982474 109.13549104 67.587492 119.84323262 58.46484375 129.4921875 C44.70631663 140.99886935 26.30856432 141.54129786 9.29296875 141.55859375 C8.6058783 141.55960083 7.91878784 141.56060791 7.21087646 141.56164551 C-6.41039785 141.5481477 -20.59967663 141.36327282 -32.70703125 134.30859375 C-33.485625 133.86515625 -34.26421875 133.42171875 -35.06640625 132.96484375 C-41.73075704 128.87040601 -46.42144694 123.92720813 -48.70703125 116.30859375 C-49.55619665 111.30293118 -49.86472625 106.41117564 -49.8840332 101.34472656 C-49.8906044 100.58108795 -49.8971756 99.81744934 -49.90394592 99.03067017 C-49.92352186 96.52435174 -49.93530557 94.01809275 -49.9453125 91.51171875 C-49.94938803 90.64926292 -49.95346355 89.7868071 -49.95766258 88.89821625 C-49.97845548 84.33383938 -49.99278689 79.76949197 -50.00219727 75.20507812 C-50.01325359 70.51699361 -50.04766406 65.82938472 -50.08736897 61.14146805 C-50.11363752 57.51238178 -50.12189809 53.88340727 -50.12547874 50.25423431 C-50.13031745 48.52723728 -50.14185287 46.80024432 -50.16051674 45.07334137 C-50.28541754 32.75218874 -49.85575084 21.51548512 -40.81640625 12.08984375 C-29.11331645 2.20723458 -14.74325653 0.27638237 0 0 Z " fill="#F55E23" transform="translate(1675.70703125,1320.69140625)"/>
<path d="M0 0 C1.20369232 -0.02289345 1.20369232 -0.02289345 2.43170166 -0.04624939 C43.22775942 -0.6790844 43.22775942 -0.6790844 58.48828125 12.30859375 C64.66968435 18.41213277 67.78568256 24.9040901 67.90597534 33.65054321 C67.90147369 34.41023407 67.89697205 35.16992493 67.89233398 35.95263672 C67.89919724 36.77654907 67.90606049 37.60046143 67.91313171 38.44934082 C67.93130569 41.15000054 67.92757534 43.850074 67.921875 46.55078125 C67.9264417 48.4435342 67.93174872 50.3362855 67.9377594 52.22903442 C67.94667236 56.18807732 67.94428854 60.14691831 67.93432617 64.10595703 C67.92284592 69.15848676 67.94304286 74.2103166 67.97224331 79.26275444 C67.99066484 83.16977302 67.9903009 87.07662576 67.98460579 90.98367691 C67.98445326 92.84544989 67.99044019 94.7072346 68.00289726 96.56896591 C68.07513724 109.13549104 67.7828045 119.84323262 58.66015625 129.4921875 C44.90162913 140.99886935 26.50387682 141.54129786 9.48828125 141.55859375 C8.8011908 141.55960083 8.11410034 141.56060791 7.40618896 141.56164551 C-10.70779744 141.54369571 -26.75743764 139.70827975 -41.51171875 128.30859375 C-48.86749137 120.75924816 -49.65038174 111.40547272 -49.6887207 101.34472656 C-49.6952919 100.58108795 -49.7018631 99.81744934 -49.70863342 99.03067017 C-49.72820936 96.52435174 -49.73999307 94.01809275 -49.75 91.51171875 C-49.75407553 90.64926292 -49.75815105 89.7868071 -49.76235008 88.89821625 C-49.78314298 84.33383938 -49.79747439 79.76949197 -49.80688477 75.20507812 C-49.81794109 70.51699361 -49.85235156 65.82938472 -49.89205647 61.14146805 C-49.91832502 57.51238178 -49.92658559 53.88340727 -49.93016624 50.25423431 C-49.93500495 48.52723728 -49.94654037 46.80024432 -49.96520424 45.07334137 C-50.09001321 32.76124807 -49.6709883 21.49444171 -40.61328125 12.08984375 C-29.2926103 2.49462823 -14.39227649 0.2661069 0 0 Z " fill="#F55E23" transform="translate(2901.51171875,1320.69140625)"/>
<path d="M0 0 C605.22 0 1210.44 0 1834 0 C1834 2.64 1834 5.28 1834 8 C1228.78 8 623.56 8 0 8 C0 5.36 0 2.72 0 0 Z " fill="#F8A969" transform="translate(1131,1509)"/>
<path d="M0 0 C0.79899216 -0.0133136 1.59798431 -0.0266272 2.42118835 -0.04034424 C4.10971901 -0.06056382 5.79840895 -0.06997929 7.48706055 -0.06933594 C10.05724097 -0.07806732 12.62049324 -0.15063508 15.18945312 -0.2265625 C26.78979987 -0.39777669 26.78979987 -0.39777669 31.21508789 2.00268555 C33.201555 4.09871597 34.41811941 6.11284011 35.76171875 8.671875 C36.38167725 9.73905762 37.00163574 10.80624023 37.64038086 11.90576172 C39.72265381 15.5460574 41.65211152 19.25776284 43.57421875 22.984375 C44.57419136 24.89823625 45.57720116 26.81047385 46.58122253 28.72221375 C47.4821571 30.441472 48.37569446 32.16460065 49.26879883 33.88793945 C50.75366691 36.76338701 50.75366691 36.76338701 52.76171875 39.671875 C55.34552052 39.92218477 55.34552052 39.92218477 57.76171875 39.671875 C58.18469238 38.87080322 58.60766602 38.06973145 59.04345703 37.24438477 C60.63875179 34.22865489 62.2383699 31.21529883 63.84082031 28.20336914 C64.529047 26.90772297 65.215617 25.6111952 65.90039062 24.3137207 C76.54751014 4.14801407 76.54751014 4.14801407 81.76171875 0.671875 C84.54405995 0.45183207 87.22390036 0.3438679 90.0078125 0.3359375 C90.81533463 0.3292807 91.62285675 0.3226239 92.45484924 0.31576538 C94.16201501 0.30564484 95.86922028 0.30094818 97.57641602 0.30126953 C100.18637328 0.29689652 102.79463886 0.26057373 105.40429688 0.22265625 C107.0637963 0.21678787 108.72330376 0.21281862 110.3828125 0.2109375 C111.55172279 0.18938095 111.55172279 0.18938095 112.74424744 0.16738892 C116.11802514 0.19579645 118.24997673 0.27797864 120.96807957 2.37014771 C123.14001065 5.15732647 123.26214105 6.48642934 123.26292419 9.98535156 C123.27275833 11.0620813 123.28259247 12.13881104 123.29272461 13.24816895 C123.28305664 14.42439819 123.27338867 15.60062744 123.26342773 16.8125 C123.27153221 18.67642395 123.27153221 18.67642395 123.27980042 20.57800293 C123.2901659 23.98323691 123.28258427 27.38749954 123.2660892 30.79264832 C123.25223434 34.35688673 123.25869927 37.92109594 123.26222229 41.48535156 C123.26492408 47.47078589 123.25145166 53.45601965 123.22827148 59.44140625 C123.20166178 66.36020418 123.19991467 73.27866676 123.21165985 80.19749832 C123.22244119 86.85465025 123.21624781 93.51168094 123.20210457 100.16882324 C123.19634781 103.00129056 123.19642498 105.83366908 123.20116997 108.6661377 C123.20683075 112.62130409 123.18761648 116.57613528 123.16577148 120.53125 C123.17252396 122.29559387 123.17252396 122.29559387 123.17941284 124.09558105 C123.16950821 125.17231079 123.15960358 126.24904053 123.1493988 127.35839844 C123.14575396 128.76094879 123.14575396 128.76094879 123.14203548 130.1918335 C122.68391984 133.17920089 121.90072922 134.55012732 119.76171875 136.671875 C116.79123253 137.06436193 114.19633099 137.209185 111.2265625 137.16796875 C110.39210098 137.16942398 109.55763947 137.17087921 108.69789124 137.17237854 C106.93519598 137.1707194 105.17248626 137.15915634 103.40991211 137.13842773 C100.70559501 137.10944334 98.00323403 137.11782313 95.29882812 137.13085938 C93.58723002 137.12462293 91.87563812 137.11623273 90.1640625 137.10546875 C89.35259262 137.10840439 88.54112274 137.11134003 87.70506287 137.11436462 C85.42944336 137.07592773 85.42944336 137.07592773 81.76171875 136.671875 C79.3725951 133.08818953 79.49083741 131.44191601 79.44287109 127.1809082 C79.43282547 126.5269809 79.42277985 125.87305359 79.41242981 125.1993103 C79.38156861 123.04043446 79.36455494 120.88168279 79.34765625 118.72265625 C79.32894692 117.2247765 79.30937368 115.72690732 79.28897095 114.22904968 C79.23761874 110.2885053 79.1980097 106.34792673 79.16082764 102.40722656 C79.12080726 98.38533043 79.06970597 94.36357687 79.01953125 90.34179688 C78.92273544 82.45192027 78.83834249 74.56197317 78.76171875 66.671875 C78.48497314 67.19096436 78.20822754 67.71005371 77.9230957 68.24487305 C76.64932471 70.62143017 75.36193303 72.99034603 74.07421875 75.359375 C73.63916016 76.17599609 73.20410156 76.99261719 72.75585938 77.83398438 C69.93652098 82.99232944 67.21194486 87.94676194 61.76171875 90.671875 C59.51616526 90.8474888 57.26367648 90.93924083 55.01171875 90.984375 C53.19414062 91.04044922 53.19414062 91.04044922 51.33984375 91.09765625 C47.20850737 90.60604526 44.72029355 89.51432251 41.76171875 86.671875 C39.51628011 83.40047506 37.70286474 79.94559304 35.88671875 76.421875 C35.38914062 75.48601562 34.8915625 74.55015625 34.37890625 73.5859375 C33.15958208 71.28798042 31.95455025 68.9836627 30.76171875 66.671875 C30.75585251 67.50459427 30.74998627 68.33731354 30.74394226 69.19526672 C30.68606766 77.03822735 30.6140214 84.88090159 30.52600384 92.72358418 C30.48125287 96.75572529 30.44200747 100.78776427 30.4152832 104.82006836 C30.38929693 108.71060663 30.34892852 112.60075283 30.29853249 116.49104881 C30.28183194 117.97616898 30.27033752 119.46135701 30.26410484 120.946558 C30.25449785 123.02509405 30.22648254 125.10261985 30.1940918 127.1809082 C30.18298874 128.36449417 30.17188568 129.54808014 30.16044617 130.76753235 C29.76171875 133.671875 29.76171875 133.671875 28.45954895 135.55329895 C25.5117079 137.49541566 22.11407106 137.09750685 18.69921875 137.0703125 C17.51767212 137.07461777 17.51767212 137.07461777 16.31225586 137.07901001 C14.6479419 137.08105022 12.98360394 137.07552332 11.31933594 137.06298828 C8.77093928 137.04693309 6.22412854 137.06283744 3.67578125 137.08203125 C2.05859025 137.08004881 0.44140023 137.07620511 -1.17578125 137.0703125 C-1.93834229 137.07638519 -2.70090332 137.08245789 -3.48657227 137.0887146 C-8.74558795 137.01875235 -8.74558795 137.01875235 -10.93890476 135.47456264 C-12.69721655 133.03517193 -12.61824542 131.43613682 -12.6259613 128.44068909 C-12.63586594 127.35691986 -12.64577057 126.27315063 -12.65597534 125.15653992 C-12.65147369 123.96736465 -12.64697205 122.77818939 -12.64233398 121.55297852 C-12.64919724 120.300755 -12.65606049 119.04853149 -12.66313171 117.75836182 C-12.67831513 114.32224738 -12.67988877 110.88667458 -12.67418933 107.45056653 C-12.67110196 104.58270547 -12.67718491 101.7148937 -12.68322808 98.84703964 C-12.69728258 92.08149721 -12.69570456 85.31608103 -12.68432617 78.55053711 C-12.67284533 71.56979962 -12.68691761 64.58944632 -12.71372265 57.60875946 C-12.73587185 51.61630183 -12.74251878 45.62396486 -12.73664623 39.63146919 C-12.73327336 36.0520104 -12.73571316 32.47279788 -12.75289726 28.89337349 C-12.77122143 24.90215084 -12.7571872 20.91140144 -12.73999023 16.92016602 C-12.7496582 15.73301498 -12.75932617 14.54586395 -12.76928711 13.32273865 C-12.75945297 12.2361496 -12.74961884 11.14956055 -12.73948669 10.03004456 C-12.73927741 9.08633782 -12.73906813 8.14263109 -12.7388525 7.17032719 C-11.36655758 0.32092613 -5.98007029 0.03471785 0 0 Z " fill="#F55F24" transform="translate(2255.23828125,1322.328125)"/>
<path d="M0 0 C1.13308594 -0.00064453 2.26617188 -0.00128906 3.43359375 -0.00195312 C4.61308594 0.01802734 5.79257813 0.03800781 7.0078125 0.05859375 C8.17957031 0.05150391 9.35132813 0.04441406 10.55859375 0.03710938 C18.52604502 0.09589307 23.56958317 0.78484522 29.31640625 6.5703125 C30.41034567 7.76629541 31.49469395 8.97110733 32.5703125 10.18359375 C33.43160767 11.13395508 33.43160767 11.13395508 34.31030273 12.10351562 C35.92731643 13.89280586 37.53210742 15.69221813 39.1328125 17.49609375 C40.11121094 18.58857422 40.11121094 18.58857422 41.109375 19.703125 C42.80330618 21.61818513 44.47061307 23.55339817 46.1328125 25.49609375 C47.09104012 26.61206994 48.04938486 27.72794558 49.0078125 28.84375 C51.52234333 31.77318035 54.03365849 34.70534177 56.54333496 37.63893127 C58.13407521 39.49756912 59.72590144 41.35527088 61.31811523 43.21264648 C61.84823715 43.83106918 62.37835907 44.44949188 62.92454529 45.08665466 C63.52263756 45.78432701 63.52263756 45.78432701 64.1328125 46.49609375 C64.1421582 45.20920654 64.15150391 43.92231934 64.16113281 42.59643555 C64.20097065 37.82703894 64.26671199 33.05829163 64.34033203 28.28930664 C64.36857772 26.22428725 64.38977428 24.15915901 64.40380859 22.09399414 C64.42518834 19.1271986 64.47181259 16.16171665 64.5234375 13.1953125 C64.52466614 12.27022385 64.52589478 11.34513519 64.52716064 10.39201355 C64.67103045 4.1124787 64.67103045 4.1124787 66.69042969 1.41699219 C70.06817117 0.14341753 73.25876173 0.04778473 76.8203125 0.0625 C77.55983154 0.05725815 78.29935059 0.0520163 79.0612793 0.0466156 C80.62124376 0.04020628 82.18125663 0.04151833 83.74121094 0.05004883 C86.12522481 0.05856664 88.50684727 0.02977483 90.890625 -0.00195312 C92.40885345 -0.00356515 93.92708613 -0.00298758 95.4453125 0 C96.15582764 -0.01123398 96.86634277 -0.02246796 97.59838867 -0.03404236 C100.82987227 0.01137296 102.73453689 0.18680352 105.32096958 2.19535828 C107.51564559 4.98222733 107.63323205 6.29836274 107.63401794 9.80957031 C107.64385208 10.88630005 107.65368622 11.96302979 107.66381836 13.0723877 C107.65415039 14.24861694 107.64448242 15.42484619 107.63452148 16.63671875 C107.64262596 18.5006427 107.64262596 18.5006427 107.65089417 20.40222168 C107.66125965 23.80745566 107.65367802 27.21171829 107.63718295 30.61686707 C107.62332809 34.18110548 107.62979302 37.74531469 107.63331604 41.30957031 C107.63601783 47.29500464 107.62254541 53.2802384 107.59936523 59.265625 C107.57275553 66.18442293 107.57100842 73.10288551 107.5827536 80.02171707 C107.59353494 86.678869 107.58734156 93.33589969 107.57319832 99.99304199 C107.56744156 102.82550931 107.56751873 105.65788783 107.57226372 108.49035645 C107.5779245 112.44552284 107.55871023 116.40035403 107.53686523 120.35546875 C107.54136688 121.531698 107.54586853 122.70792725 107.55050659 123.9197998 C107.54060196 124.99652954 107.53069733 126.07325928 107.52049255 127.18261719 C107.51806266 128.11765076 107.51563276 129.05268433 107.51312923 130.01605225 C107.05540823 133.00084617 106.26664683 134.37360744 104.1328125 136.49609375 C101.2315743 136.87650253 98.71498029 137.0099223 95.81640625 136.95703125 C95.00414078 136.95611481 94.19187531 136.95519836 93.35499573 136.95425415 C91.63935496 136.94821581 89.92372485 136.93246265 88.20825195 136.90771484 C85.57659253 136.87118093 82.94633976 136.8666956 80.31445312 136.8671875 C78.64842529 136.85735736 76.98240701 136.84570081 75.31640625 136.83203125 C74.52681015 136.8298056 73.73721405 136.82757996 72.9236908 136.82528687 C67.36496856 136.72824981 67.36496856 136.72824981 65.1328125 134.49609375 C64.98852539 131.9050293 64.98852539 131.9050293 65.10546875 128.6328125 C66.05577667 112.59649558 66.05577667 112.59649558 59.1328125 98.93359375 C57.18797683 97.0449745 55.17807201 95.28065658 53.1328125 93.49609375 C51.57404974 91.67369788 50.05120627 89.81981264 48.5703125 87.93359375 C46.19136895 85.00301112 43.79688279 82.09011047 41.3515625 79.21484375 C40.8882251 78.66771729 40.4248877 78.12059082 39.94750977 77.55688477 C38.6364409 76.01153874 37.32030532 74.47049554 36.00390625 72.9296875 C34.1328125 70.49609375 34.1328125 70.49609375 34.1328125 68.49609375 C33.4728125 68.49609375 32.8128125 68.49609375 32.1328125 68.49609375 C32.13725372 69.31850555 32.14169495 70.14091736 32.14627075 70.98825073 C32.18629922 78.72831291 32.21677225 86.4683251 32.23643684 94.20846367 C32.24688636 98.18801148 32.26106672 102.16747396 32.28369141 106.14697266 C32.30537835 109.98543261 32.31737232 113.82381034 32.32256699 117.66232681 C32.32627023 119.12879862 32.3335015 120.5952658 32.34427261 122.06170273 C32.35873269 124.11138481 32.36079279 126.16072457 32.35986328 128.21044922 C32.3643045 129.37849091 32.36874573 130.54653259 32.37332153 131.74996948 C32.1328125 134.49609375 32.1328125 134.49609375 30.1328125 136.49609375 C27.37139317 136.72044611 24.71315828 136.82424049 21.94921875 136.83203125 C21.13791 136.83868805 20.32660126 136.84534485 19.4907074 136.85220337 C17.77336904 136.86233625 16.05599126 136.86702019 14.33862305 136.86669922 C11.70881368 136.8710713 9.08068394 136.90737856 6.45117188 136.9453125 C4.78385992 136.95118074 3.11653997 136.95515009 1.44921875 136.95703125 C0.66164688 136.97140228 -0.12592499 136.98577332 -0.93736267 137.00057983 C-6.40608923 136.95473984 -6.40608923 136.95473984 -8.57454014 134.79782104 C-10.12346093 132.03976547 -10.24667394 130.33555309 -10.25486755 127.18261719 C-10.26477219 126.10588745 -10.27467682 125.02915771 -10.28488159 123.9197998 C-10.28037994 122.74357056 -10.2758783 121.56734131 -10.27124023 120.35546875 C-10.28153511 118.4915448 -10.28153511 118.4915448 -10.29203796 116.58996582 C-10.30720495 113.18489935 -10.30879978 109.78038021 -10.30309558 106.37532043 C-10.30000536 103.53226236 -10.3060942 100.68925387 -10.31213433 97.84620285 C-10.32618033 91.1396141 -10.3246173 84.43315273 -10.31323242 77.7265625 C-10.30174678 70.80771899 -10.31583384 63.88926289 -10.3426289 56.97047043 C-10.36477762 51.02894739 -10.37142531 45.08754604 -10.36555248 39.14598465 C-10.36218018 35.59783906 -10.36461591 32.04994192 -10.38180351 28.50183105 C-10.40012714 24.54663873 -10.386094 20.59192397 -10.36889648 16.63671875 C-10.37856445 15.4604895 -10.38823242 14.28426025 -10.39819336 13.0723877 C-10.38835922 11.99565796 -10.37852509 10.91892822 -10.36839294 9.80957031 C-10.36818366 8.87453674 -10.36797438 7.93950317 -10.36775875 6.97613525 C-9.20402424 1.21050273 -5.3581204 -0.00963841 0 0 Z " fill="#F55F25" transform="translate(1795.8671875,1322.50390625)"/>
<path d="M0 0 C1.10730469 -0.01998047 2.21460937 -0.03996094 3.35546875 -0.06054688 C11.53114347 -0.05568619 17.05509191 1.11030347 23.18359375 6.62890625 C23.84488281 7.41136719 24.50617187 8.19382812 25.1875 9 C25.94417969 9.88300781 26.70085938 10.76601562 27.48046875 11.67578125 C30.41376895 15.24521884 33.31520387 18.83994423 36.21875 22.43359375 C39.71911834 26.58758025 43.41512573 30.54386895 47.14550781 34.49121094 C47.66983398 35.04711914 48.19416016 35.60302734 48.734375 36.17578125 C49.19553711 36.66087158 49.65669922 37.14596191 50.13183594 37.64575195 C52.41857509 40.17779459 54.57616737 42.8079156 56.75 45.4375 C56.7593457 44.21643555 56.76869141 42.99537109 56.77832031 41.73730469 C56.81820923 37.20454501 56.88396493 32.67246485 56.95751953 28.14013672 C56.98573553 26.17896253 57.00694694 24.21767449 57.02099609 22.25634766 C57.04241699 19.43593023 57.08906209 16.61688257 57.140625 13.796875 C57.14185364 12.92069519 57.14308228 12.04451538 57.14434814 11.14178467 C57.23325652 7.44205189 57.35590904 5.09032432 59.29174805 1.88354492 C62.7138788 -0.12949316 65.83213772 -0.11753788 69.69140625 -0.05859375 C70.45549301 -0.06004898 71.21957977 -0.06150421 72.00682068 -0.06300354 C73.6181114 -0.06134707 75.22941835 -0.04981383 76.84057617 -0.02905273 C79.307811 -0.00005511 81.77290184 -0.00845572 84.24023438 -0.02148438 C85.80730211 -0.01524786 87.37436307 -0.00685759 88.94140625 0.00390625 C89.67895645 0.00097061 90.41650665 -0.00196503 91.17640686 -0.00498962 C96.25436806 0.08868515 96.25436806 0.08868515 98.44473553 1.63021755 C100.22499416 4.09518174 100.12475057 5.72976819 100.1242218 8.7580719 C100.13123611 9.86155975 100.13825043 10.96504761 100.14547729 12.10197449 C100.13783356 13.31299332 100.13018982 14.52401215 100.12231445 15.77172852 C100.12596512 17.04667175 100.12961578 18.32161499 100.13337708 19.63519287 C100.14278958 23.13307233 100.13335835 26.63067215 100.12004495 30.12852979 C100.10873871 33.78579586 100.11283725 37.44304801 100.11479187 41.10032654 C100.115675 47.2413287 100.10458966 53.38222051 100.08618164 59.52319336 C100.06500427 66.62883937 100.061506 73.73432379 100.0677436 80.83999497 C100.07343247 87.66959113 100.06779786 94.49913025 100.05657005 101.32871819 C100.05191868 104.23817942 100.05105252 107.14760583 100.0531559 110.05706978 C100.05538424 114.11568846 100.04095046 118.17407948 100.0246582 122.23266602 C100.02713562 123.44570908 100.02961304 124.65875214 100.03216553 125.90855408 C100.02508072 127.00922211 100.01799591 128.10989014 100.01069641 129.24391174 C100.00761711 130.68436025 100.00761711 130.68436025 100.00447559 132.15390873 C99.75 134.4375 99.75 134.4375 97.75 136.4375 C94.98858067 136.66185236 92.33034578 136.76564674 89.56640625 136.7734375 C88.7550975 136.7800943 87.94378876 136.7867511 87.1078949 136.79360962 C85.39055654 136.8037425 83.67317876 136.80842644 81.95581055 136.80810547 C79.32600118 136.81247755 76.69787144 136.84878481 74.06835938 136.88671875 C72.40104742 136.89258699 70.73372747 136.89655634 69.06640625 136.8984375 C68.27883438 136.91280853 67.49126251 136.92717957 66.67982483 136.94198608 C61.30531694 136.89693585 61.30531694 136.89693585 58.73364258 134.76928711 C57.50437823 131.85523802 57.51938187 129.82444497 57.6953125 126.66796875 C58.57818254 111.85904581 58.57818254 111.85904581 52.59350586 98.8918457 C50.30630093 96.540304 47.94742753 94.29585429 45.50439453 92.10693359 C42.58625436 89.33011165 40.22954448 86.14871624 37.8125 82.9375 C35.14997474 79.46466299 32.44818558 76.05266312 29.59155273 72.73632812 C29.05755356 72.11568481 28.52355438 71.4950415 27.97337341 70.85559082 C27.56966019 70.38762085 27.16594696 69.91965088 26.75 69.4375 C26.74413376 70.23263504 26.73826752 71.02777008 26.73222351 71.84700012 C26.67434348 79.33679596 26.60229442 86.82625733 26.51428509 94.31575489 C26.46953829 98.16629256 26.43029202 102.01672338 26.40356445 105.86743164 C26.37757393 109.58291565 26.33720265 113.2979894 26.28681374 117.01321983 C26.27011604 118.43135161 26.25861983 119.84955439 26.25238609 121.26777077 C26.24277746 123.2526024 26.21303716 125.23730582 26.18237305 127.22192383 C26.17126999 128.35221512 26.16016693 129.48250641 26.14872742 130.64704895 C25.75 133.4375 25.75 133.4375 24.4478302 135.30171204 C21.50744311 137.26872633 18.10727859 136.86317108 14.6875 136.8359375 C13.50595337 136.84024277 13.50595337 136.84024277 12.30053711 136.84463501 C10.63622315 136.84667522 8.97188519 136.84114832 7.30761719 136.82861328 C4.75922053 136.81255809 2.21240979 136.82846244 -0.3359375 136.84765625 C-1.9531285 136.84567381 -3.57031852 136.84183011 -5.1875 136.8359375 C-5.95006104 136.84201019 -6.71262207 136.84808289 -7.49829102 136.8543396 C-12.75613233 136.78439297 -12.75613233 136.78439297 -14.95062351 135.24298096 C-16.71513181 132.7912003 -16.62999971 131.17068637 -16.63768005 128.16162109 C-16.64758469 127.06799255 -16.65748932 125.97436401 -16.66769409 124.84759521 C-16.66319244 123.64749817 -16.6586908 122.44740112 -16.65405273 121.2109375 C-16.66091599 119.94735413 -16.66777924 118.68377075 -16.67485046 117.38189697 C-16.69281412 113.91496826 -16.69160773 110.44829218 -16.68590808 106.98133087 C-16.6828212 104.08852242 -16.68890298 101.19576285 -16.69494683 98.30296135 C-16.7090006 91.47992779 -16.70742339 84.65701941 -16.69604492 77.83398438 C-16.68455892 70.79074426 -16.69864519 63.74788471 -16.7254414 56.70469475 C-16.74757759 50.66044872 -16.75424063 44.61632234 -16.74836498 38.57203865 C-16.74498962 34.96075453 -16.7474486 31.34971446 -16.76461601 27.73846436 C-16.7829151 23.71341737 -16.76891979 19.68911415 -16.75170898 15.6640625 C-16.76137695 14.46396545 -16.77104492 13.26386841 -16.78100586 12.02740479 C-16.77117172 10.93377625 -16.76133759 9.84014771 -16.75120544 8.71337891 C-16.75099616 7.76137604 -16.75078688 6.80937317 -16.75057125 5.82852173 C-16.25 3.4375 -16.25 3.4375 -14.38255405 1.63301086 C-10.04251897 -0.80001496 -4.85098629 -0.03063195 0 0 Z " fill="#F55F25" transform="translate(2572.25,1322.5625)"/>
<path d="M0 0 C1.25124664 -0.00960754 2.50249329 -0.01921509 3.79165649 -0.02911377 C5.14804908 -0.0339599 6.50444379 -0.03823918 7.86083984 -0.04199219 C9.25898235 -0.04774863 10.65712484 -0.0535063 12.05526733 -0.05926514 C14.97874314 -0.06974234 17.90219168 -0.07560766 20.82568359 -0.07910156 C24.5729148 -0.08460545 28.31978616 -0.10868696 32.06690407 -0.13707352 C34.95107083 -0.15567859 37.83515008 -0.16090415 40.7193718 -0.16243744 C42.10129151 -0.16546505 43.48320964 -0.17349729 44.86507034 -0.18662262 C46.7940885 -0.20365023 48.72325604 -0.19996282 50.65234375 -0.1953125 C51.74978912 -0.19895813 52.8472345 -0.20260376 53.97793579 -0.20635986 C56.69677734 0.16113281 56.69677734 0.16113281 58.54930115 1.48724365 C60.42813467 4.22800558 60.1051456 6.85932483 60.13037109 10.12988281 C60.13561295 10.80660034 60.1408548 11.48331787 60.14625549 12.18054199 C60.15267092 13.60944244 60.15134479 15.03839573 60.14282227 16.46728516 C60.13430532 18.65394989 60.16308367 20.83800707 60.19482422 23.02441406 C60.19643622 24.4137362 60.19585872 25.80306296 60.19287109 27.19238281 C60.19472412 28.45630859 60.19657715 29.72023438 60.19848633 31.02246094 C59.69677734 34.16113281 59.69677734 34.16113281 57.95948792 35.83226013 C55.387251 37.34291528 53.95182153 37.54332816 50.99169922 37.56176758 C50.06393677 37.57510635 49.13617432 37.58844513 48.18029785 37.60218811 C46.68798645 37.60236183 46.68798645 37.60236183 45.16552734 37.60253906 C44.13745972 37.61574692 43.10939209 37.62895477 42.0501709 37.64256287 C38.76567879 37.68346165 35.48146652 37.70513091 32.19677734 37.72363281 C28.91217355 37.74742036 25.62783336 37.77554447 22.34338379 37.81541443 C20.30010151 37.83976352 18.25667947 37.8546285 16.21325684 37.85902405 C14.82161316 37.87430397 14.82161316 37.87430397 13.40185547 37.88989258 C12.58785278 37.89416763 11.7738501 37.89844269 10.93518066 37.90284729 C8.43343438 38.19151951 6.82478558 38.8277859 4.69677734 40.16113281 C3.43075755 42.6931724 3.56293613 44.46337395 3.55151367 47.29760742 C3.54513382 48.36889389 3.53875397 49.44018036 3.53218079 50.54393005 C3.53106796 51.7053804 3.52995514 52.86683075 3.52880859 54.06347656 C3.52548019 55.25211807 3.52215179 56.44075958 3.51872253 57.66542053 C3.51365235 60.1831117 3.51131424 62.7008096 3.51147461 65.21850586 C3.50928843 69.07905093 3.49113422 72.93931023 3.47216797 76.79980469 C3.46923407 79.241861 3.46724925 81.68391867 3.46630859 84.12597656 C3.45912308 85.28540268 3.45193756 86.4448288 3.4445343 87.63938904 C3.44914925 89.25104698 3.44914925 89.25104698 3.45385742 90.89526367 C3.4524324 91.84187363 3.45100739 92.78848358 3.44953918 93.76377869 C3.53561258 96.42467119 3.53561258 96.42467119 5.69677734 99.16113281 C8.55183783 100.11281964 10.60615016 100.35122742 13.58349609 100.47753906 C14.52128906 100.51943359 15.45908203 100.56132813 16.42529297 100.60449219 C17.40175781 100.64380859 18.37822266 100.683125 19.38427734 100.72363281 C20.86637695 100.7884082 20.86637695 100.7884082 22.37841797 100.85449219 C24.8177328 100.96054935 27.25714848 101.06260995 29.69677734 101.16113281 C29.68630371 100.14164551 29.67583008 99.1221582 29.66503906 98.07177734 C29.62889007 94.2960968 29.60589558 90.5204316 29.58691406 86.74462891 C29.5768448 85.10918609 29.56318854 83.47376132 29.54589844 81.83837891 C29.5216903 79.49018911 29.51030377 77.14223694 29.50146484 74.79394531 C29.49114227 74.06055939 29.4808197 73.32717346 29.47018433 72.57156372 C29.46978366 70.76650584 29.5746498 68.96205451 29.69677734 67.16113281 C32.29134737 64.56656278 34.1036551 64.90247879 37.64012146 64.85758972 C38.45159134 64.85850113 39.26306122 64.85941254 40.09912109 64.86035156 C40.93262589 64.85606644 41.76613068 64.85178131 42.62489319 64.84736633 C44.38932384 64.84161846 46.1537782 64.84112613 47.91821289 64.84545898 C50.62020267 64.84861637 53.32109513 64.82517537 56.02294922 64.79980469 C57.73583846 64.7975315 59.44873065 64.79682829 61.16162109 64.79785156 C61.97106674 64.78864182 62.78051239 64.77943207 63.61448669 64.76994324 C69.17742679 64.81589216 69.17742679 64.81589216 71.40983582 66.29989624 C73.27184038 68.99281656 73.07801117 71.05720833 73.08496094 74.31323242 C73.09441742 75.58142319 73.1038739 76.84961395 73.11361694 78.15623474 C73.10824667 79.54198519 73.10209358 80.92773279 73.09521484 82.31347656 C73.09723594 83.73450368 73.10014767 85.15552978 73.10391235 86.57655334 C73.10833553 89.55496087 73.10190615 92.53309846 73.08789062 95.51147461 C73.07081391 99.3259863 73.08062975 103.13986404 73.09860802 106.95435238 C73.10945955 109.88921364 73.10599305 112.82392515 73.09822464 115.75879097 C73.09622559 117.16498451 73.09867156 118.57119172 73.1056633 119.97736931 C73.11329761 121.94478972 73.09959468 123.91225787 73.08496094 125.87963867 C73.08257416 126.99866074 73.08018738 128.1176828 73.07772827 129.27061462 C72.63663654 132.61745955 72.28736979 133.97610007 69.69677734 136.16113281 C67.06202201 136.56457976 64.83966121 136.70842864 62.20288086 136.67871094 C61.44143265 136.68572021 60.67998444 136.69272949 59.89546204 136.69995117 C57.37183367 136.71758694 54.84932395 136.70587892 52.32568359 136.69238281 C50.5650969 136.69507865 48.80451166 136.69896183 47.04393005 136.70397949 C43.34579353 136.70988415 39.64804286 136.70128998 35.94995117 136.68261719 C31.23932671 136.65997724 26.52962143 136.67284851 21.81903172 136.69690704 C18.17696918 136.71146816 14.53511871 136.70670964 10.89304924 136.69639587 C9.15853705 136.69374908 7.42400487 136.69692529 5.68951607 136.70631409 C-9.0110497 136.7683538 -21.03576468 135.13304543 -32.01806641 124.50097656 C-35.8449879 120.39335178 -37.63855096 116.50560509 -39.30322266 111.16113281 C-39.48906418 110.57816437 -39.6749057 109.99519592 -39.86637878 109.39456177 C-40.50193785 106.14517199 -40.46770936 102.91195858 -40.48022461 99.61376953 C-40.49008141 98.48118965 -40.49008141 98.48118965 -40.50013733 97.32572937 C-40.51982052 94.83075856 -40.53152391 92.33584791 -40.54150391 89.84082031 C-40.54557943 88.98539768 -40.54965496 88.12997505 -40.55385399 87.24863052 C-40.57469695 82.71783949 -40.5890044 78.18707856 -40.59838867 73.65625 C-40.60942879 68.9960036 -40.64380587 64.33623785 -40.68356037 59.67616081 C-40.70981632 56.07627528 -40.7180886 52.47650254 -40.72167015 48.87652969 C-40.72651563 47.15987032 -40.73807089 45.44321528 -40.75670815 43.72665024 C-40.84994588 34.56729643 -40.84373128 26.41007615 -36.30322266 18.16113281 C-35.46791016 16.58332031 -35.46791016 16.58332031 -34.61572266 14.97363281 C-25.93543227 4.41652288 -13.42950528 0.08343371 0 0 Z " fill="#F55F24" transform="translate(1986.30322265625,1322.8388671875)"/>
<path d="M0 0 C0.832966 -0.00686325 1.66593201 -0.0137265 2.5241394 -0.02079773 C5.27538128 -0.03908766 8.02605418 -0.03522554 10.77734375 -0.02954102 C12.69018744 -0.03410142 14.60302948 -0.03940657 16.51586914 -0.04542542 C20.52399352 -0.05436056 24.53191868 -0.05192838 28.54003906 -0.04199219 C33.6784663 -0.03049569 38.81620703 -0.05072237 43.95454407 -0.07990932 C47.90421928 -0.09824659 51.85372919 -0.09798392 55.80343628 -0.0922718 C57.69807906 -0.09211832 59.59273286 -0.098185 61.48733521 -0.11056328 C64.13522561 -0.12542677 66.78183736 -0.11483137 69.4296875 -0.09765625 C70.21318573 -0.10732422 70.99668396 -0.11699219 71.80392456 -0.12695312 C75.32180871 -0.07912557 77.33579434 0.12335632 80.20031738 2.24461365 C82.29696887 5.23405727 82.2320761 7.36723152 82.24609375 10.99780273 C82.25382812 12.91399414 82.25382812 12.91399414 82.26171875 14.86889648 C82.24915039 15.86252197 82.24915039 15.86252197 82.23632812 16.8762207 C82.21490325 18.89843721 82.23614114 20.91710234 82.26171875 22.93920898 C82.2565625 24.21666992 82.25140625 25.49413086 82.24609375 26.81030273 C82.24158203 27.97883789 82.23707031 29.14737305 82.23242188 30.35131836 C81.71484375 33.40405273 81.71484375 33.40405273 77.71484375 37.40405273 C70.78484375 37.40405273 63.85484375 37.40405273 56.71484375 37.40405273 C56.71484375 58.19405273 56.71484375 78.98405273 56.71484375 100.40405273 C63.64484375 100.40405273 70.57484375 100.40405273 77.71484375 100.40405273 C81.71484375 104.40405273 81.71484375 104.40405273 82.21655273 107.47265625 C82.21469971 108.64755615 82.21284668 109.82245605 82.2109375 111.03295898 C82.21158203 112.31493164 82.21222656 113.5969043 82.21289062 114.91772461 C82.19730103 115.91437134 82.19730103 115.91437134 82.18139648 116.93115234 C82.15238073 118.96396198 82.16080441 120.99417091 82.17382812 123.02709961 C82.10925171 132.89735668 82.10925171 132.89735668 80.42247105 135.06436443 C77.47363943 137.37781727 73.8314815 136.80995228 70.23608398 136.77636719 C69.37079071 136.78001785 68.50549744 136.78366852 67.61398315 136.78742981 C64.75026908 136.79554415 61.88711921 136.78191898 59.0234375 136.76733398 C57.03711447 136.76681553 55.05079091 136.76733266 53.06446838 136.7688446 C48.90072983 136.76875484 44.73718475 136.75831677 40.57348633 136.74023438 C35.22762409 136.71753238 29.88204431 136.71700537 24.53614712 136.72375202 C20.43473282 136.72708789 16.33338331 136.72046939 12.23198128 136.71062279 C10.26033937 136.706765 8.28869026 136.70562496 6.31704521 136.70720863 C3.56595917 136.7075781 0.81524008 136.69499312 -1.93579102 136.67871094 C-2.75610306 136.68118835 -3.5764151 136.68366577 -4.42158508 136.68621826 C-10.05641384 136.63279515 -10.05641384 136.63279515 -12.28515625 134.40405273 C-12.70765836 130.00470516 -12.65675027 125.5906623 -12.65576172 121.17333984 C-12.66013351 118.97796995 -12.69644075 116.78461332 -12.734375 114.58959961 C-12.74024352 113.19572628 -12.74421268 111.8018434 -12.74609375 110.40795898 C-12.75431152 109.13766846 -12.7625293 107.86737793 -12.77099609 106.55859375 C-12.28515625 103.40405273 -12.28515625 103.40405273 -8.28515625 100.40405273 C-1.35515625 100.40405273 5.57484375 100.40405273 12.71484375 100.40405273 C12.71484375 79.61405273 12.71484375 58.82405273 12.71484375 37.40405273 C5.45484375 37.40405273 -1.80515625 37.40405273 -9.28515625 37.40405273 C-12.99524718 33.6939618 -12.67933908 32.54504203 -12.71875 27.43530273 C-12.72399185 26.75858521 -12.7292337 26.08186768 -12.7346344 25.38464355 C-12.74104983 23.95574311 -12.73972369 22.52678982 -12.73120117 21.09790039 C-12.72268423 18.91123566 -12.75146258 16.72717848 -12.78320312 14.54077148 C-12.78481512 13.15144935 -12.78423763 11.76212259 -12.78125 10.37280273 C-12.78310303 9.10887695 -12.78495605 7.84495117 -12.78686523 6.54272461 C-12.28515625 3.40405273 -12.28515625 3.40405273 -10.7716217 1.73313904 C-7.24470109 -0.15210006 -3.90227739 -0.02242083 0 0 Z " fill="#F55F25" transform="translate(2432.28515625,1322.595947265625)"/>
<path d="M0 0 C1.1758667 -0.00574036 1.1758667 -0.00574036 2.37548828 -0.01159668 C4.02963549 -0.01431353 5.68382583 -0.0069681 7.33789062 0.00976562 C9.86686162 0.03118108 12.39299214 0.00995903 14.921875 -0.015625 C16.53125626 -0.01298168 18.14063575 -0.00785661 19.75 0 C20.5042627 -0.00809692 21.25852539 -0.01619385 22.03564453 -0.02453613 C25.17558709 0.03141935 27.41067159 0.23100675 30.07559204 1.95419312 C32.82962258 5.89843118 32.41748121 9.57951536 32.36083984 14.28173828 C32.36463654 15.27087723 32.36843323 16.26001617 32.37234497 17.27912903 C32.37976169 20.55359484 32.3583427 23.82717527 32.3359375 27.1015625 C32.33355251 29.38117366 32.33264787 31.66078682 32.3331604 33.94039917 C32.33002989 38.72373729 32.31345178 43.50677624 32.28662109 48.29003906 C32.25275668 54.40297122 32.24498925 60.51557277 32.24651146 66.62858772 C32.24596564 71.34025189 32.23496266 76.05184465 32.22050858 80.76348495 C32.21416879 83.01599462 32.21020832 85.26851233 32.20872116 87.52103043 C32.20435154 90.68228954 32.18676911 93.84320924 32.16552734 97.00439453 C32.16643372 97.92528366 32.16734009 98.84617279 32.16827393 99.79496765 C32.05585557 111.32183126 30.07910422 119.9567515 22.04296875 128.47265625 C9.92612273 139.19942433 -7.68940307 139.74228117 -23.00366211 139.82641602 C-24.4471217 139.83787332 -25.89054104 139.85822508 -27.33374023 139.88793945 C-42.23708358 140.19327292 -58.48691631 138.29854173 -70.02734375 127.80078125 C-75.5808039 121.64988284 -78.19755639 115.14829252 -78.30200195 106.88037109 C-78.31483719 105.98949799 -78.32767242 105.09862488 -78.34089661 104.18075562 C-78.34828354 103.23165314 -78.35567047 102.28255066 -78.36328125 101.3046875 C-78.371353 100.32005524 -78.37942474 99.33542297 -78.38774109 98.32095337 C-78.40153884 96.24491111 -78.41228016 94.16884657 -78.42016602 92.09277344 C-78.43174185 89.96477642 -78.45228075 87.83680966 -78.48168945 85.70898438 C-78.52415174 82.63651781 -78.54050011 79.56491016 -78.55078125 76.4921875 C-78.56828934 75.53903656 -78.58579742 74.58588562 -78.60383606 73.60385132 C-78.58247719 67.1458261 -78.58247719 67.1458261 -76.56518555 64.43579102 C-73.25228306 63.20774662 -70.14394651 63.0827884 -66.65625 63.09765625 C-65.938927 63.0924144 -65.221604 63.08717255 -64.48254395 63.08177185 C-62.96965832 63.07536358 -61.45672279 63.07667322 -59.94384766 63.08520508 C-57.6322348 63.09372334 -55.32308811 63.06492973 -53.01171875 63.03320312 C-51.53906324 63.03159109 -50.06640336 63.03216868 -48.59375 63.03515625 C-47.90510864 63.02392227 -47.21646729 63.01268829 -46.50695801 63.00111389 C-43.31726257 63.04732806 -41.37538189 63.36628838 -38.69189453 65.13427734 C-36.59430566 68.343085 -36.61173765 70.55871313 -36.5859375 74.37890625 C-36.57414459 75.03201279 -36.56235168 75.68511932 -36.55020142 76.35801697 C-36.51500795 78.43683889 -36.50577861 80.5146548 -36.5 82.59375 C-36.48364321 84.67611364 -36.46158828 86.75802997 -36.42837524 88.8401947 C-36.39979602 90.72672924 -36.38962405 92.61351583 -36.38037109 94.50024414 C-36.35575844 97.70823955 -36.35575844 97.70823955 -34.125 100.53125 C-30.67165458 101.68236514 -27.82606112 101.77120786 -24.1875 101.84375 C-22.34865234 101.89982422 -22.34865234 101.89982422 -20.47265625 101.95703125 C-17.15693477 101.79032916 -17.15693477 101.79032916 -14.94592285 100.06262207 C-12.26090837 96.33002535 -12.58270782 93.09570663 -12.64257812 88.60351562 C-12.63670937 87.25165413 -12.63670937 87.25165413 -12.63072205 85.8724823 C-12.62474774 83.91745198 -12.62791581 81.9623772 -12.6391449 80.00737 C-12.65638102 76.91398627 -12.64891335 73.82153918 -12.6348877 70.72814941 C-12.60952183 64.16245278 -12.615063 57.59697576 -12.625 51.03125 C-12.63651436 43.42330684 -12.63543161 35.8158173 -12.60093689 28.20793152 C-12.59382868 25.15875012 -12.61053832 22.11028233 -12.62805176 19.06115723 C-12.62234526 17.19376233 -12.61552865 15.32637039 -12.60742188 13.45898438 C-12.62439369 12.18555428 -12.62439369 12.18555428 -12.64170837 10.88639832 C-12.60236438 7.10189568 -12.56650541 5.15101707 -10.32580566 2.00561523 C-7.04201982 -0.19426082 -3.81934142 -0.04100019 0 0 Z " fill="#F55F25" transform="translate(1354.125,1322.46875)"/>
<path d="M0 0 C1.1758667 -0.00574036 1.1758667 -0.00574036 2.37548828 -0.01159668 C4.02963549 -0.01431353 5.68382583 -0.0069681 7.33789062 0.00976562 C9.86686162 0.03118108 12.39299214 0.00995903 14.921875 -0.015625 C16.53125626 -0.01298168 18.14063575 -0.00785661 19.75 0 C20.5042627 -0.00809692 21.25852539 -0.01619385 22.03564453 -0.02453613 C25.17439705 0.03139814 27.41066879 0.23142349 30.07559204 1.95220947 C32.8332317 5.90465639 32.41739403 9.60268025 32.36083984 14.31347656 C32.36463654 15.30582809 32.36843323 16.29817963 32.37234497 17.32060242 C32.37976035 20.60468045 32.35834756 23.88787539 32.3359375 27.171875 C32.33355281 29.45627743 32.33264781 31.74068184 32.3331604 34.02508545 C32.33003031 38.81681572 32.31345311 43.60824725 32.28662109 48.39990234 C32.25271808 54.53096733 32.24499033 60.66170276 32.24651146 66.79285049 C32.2459664 71.51301194 32.23497609 76.23310186 32.22050858 80.95323944 C32.2141588 83.2129843 32.21020595 85.47273725 32.20872116 87.73249054 C32.20436448 90.89894769 32.18681025 94.06506232 32.16552734 97.23144531 C32.16643372 98.15952499 32.16734009 99.08760468 32.16827393 100.04380798 C32.07233665 109.84985534 29.91423443 119.77914826 23.2734375 127.359375 C10.54220626 138.86980324 -6.69152383 139.73679893 -23.00366211 139.82641602 C-24.4471217 139.83787332 -25.89054104 139.85822508 -27.33374023 139.88793945 C-42.30338357 140.19463124 -58.35251514 138.24019955 -70.02734375 127.8359375 C-77.33798444 119.86394301 -78.28049161 110.91598165 -78.328125 100.5234375 C-78.33382507 99.56100128 -78.33952515 98.59856506 -78.34539795 97.60696411 C-78.35482172 95.5779937 -78.36137147 93.54900815 -78.36523438 91.52001953 C-78.37498757 88.41021454 -78.40605464 85.30105763 -78.4375 82.19140625 C-78.44402593 80.21875392 -78.44927801 78.24609687 -78.453125 76.2734375 C-78.4654718 75.34216034 -78.4778186 74.41088318 -78.49053955 73.4513855 C-78.48753845 72.58683746 -78.48453735 71.72228943 -78.48144531 70.83154297 C-78.48509094 70.07163055 -78.48873657 69.31171814 -78.49249268 68.52877808 C-78.01897239 65.95493067 -77.20834519 65.08008002 -75.125 63.53125 C-72.51441972 63.22084621 -70.14671966 63.08694386 -67.53515625 63.09765625 C-66.79422226 63.0924144 -66.05328827 63.08717255 -65.28990173 63.08177185 C-63.7239609 63.07535317 -62.15797184 63.07668672 -60.59204102 63.08520508 C-58.19915608 63.09370858 -55.80866423 63.06496722 -53.41601562 63.03320312 C-51.89322988 63.03159078 -50.37043992 63.03216929 -48.84765625 63.03515625 C-48.13400406 63.02392227 -47.42035187 63.01268829 -46.68507385 63.00111389 C-43.43849663 63.04652176 -41.41425405 63.34191273 -38.67602539 65.13427734 C-36.59941296 68.34349831 -36.61166731 70.56912823 -36.5859375 74.37890625 C-36.57414459 75.03201279 -36.56235168 75.68511932 -36.55020142 76.35801697 C-36.51500795 78.43683889 -36.50577861 80.5146548 -36.5 82.59375 C-36.48364321 84.67611364 -36.46158828 86.75802997 -36.42837524 88.8401947 C-36.39979602 90.72672924 -36.38962405 92.61351583 -36.38037109 94.50024414 C-36.35575844 97.70823955 -36.35575844 97.70823955 -34.125 100.53125 C-30.67165458 101.68236514 -27.82606112 101.77120786 -24.1875 101.84375 C-22.34865234 101.89982422 -22.34865234 101.89982422 -20.47265625 101.95703125 C-17.15693477 101.79032916 -17.15693477 101.79032916 -14.94592285 100.06262207 C-12.26090837 96.33002535 -12.58270782 93.09570663 -12.64257812 88.60351562 C-12.63670937 87.25165413 -12.63670937 87.25165413 -12.63072205 85.8724823 C-12.62474774 83.91745198 -12.62791581 81.9623772 -12.6391449 80.00737 C-12.65638102 76.91398627 -12.64891335 73.82153918 -12.6348877 70.72814941 C-12.60952183 64.16245278 -12.615063 57.59697576 -12.625 51.03125 C-12.63651436 43.42330684 -12.63543161 35.8158173 -12.60093689 28.20793152 C-12.59382868 25.15875012 -12.61053832 22.11028233 -12.62805176 19.06115723 C-12.62234526 17.19376233 -12.61552865 15.32637039 -12.60742188 13.45898438 C-12.62439369 12.18555428 -12.62439369 12.18555428 -12.64170837 10.88639832 C-12.60236438 7.10189568 -12.56650541 5.15101707 -10.32580566 2.00561523 C-7.04201982 -0.19426082 -3.81934142 -0.04100019 0 0 Z " fill="#F56025" transform="translate(1205.125,1322.46875)"/>
<path d="M0 0 C1.34090434 -0.00457463 2.68180636 -0.00988395 4.02270508 -0.0158844 C6.80608783 -0.02473526 9.58918227 -0.02247865 12.37255859 -0.01245117 C15.93473536 -0.00086536 19.49593482 -0.02135744 23.0579834 -0.05036831 C26.4762085 -0.07310186 29.89420107 -0.06626896 33.3125 -0.0625 C35.22651611 -0.07935097 35.22651611 -0.07935097 37.17919922 -0.09654236 C38.36143066 -0.08716141 39.54366211 -0.07778046 40.76171875 -0.06811523 C41.80030029 -0.06794907 42.83888184 -0.0677829 43.90893555 -0.06761169 C47.33670988 0.56492821 48.51892284 1.70356018 50.625 4.43359375 C51.14257812 7.48632812 51.14257812 7.48632812 51.15625 11.02734375 C51.16398437 12.94353516 51.16398437 12.94353516 51.171875 14.8984375 C51.15930664 15.89206299 51.15930664 15.89206299 51.14648438 16.90576172 C51.1250595 18.92797823 51.14629739 20.94664336 51.171875 22.96875 C51.16671875 24.24621094 51.1615625 25.52367187 51.15625 26.83984375 C51.15173828 28.00837891 51.14722656 29.17691406 51.14257812 30.38085938 C50.625 33.43359375 50.625 33.43359375 49.24780273 35.81860352 C45.06850888 38.39200283 40.93801035 37.9372902 36.12890625 37.8671875 C34.02278572 37.87679287 31.91666594 37.88656359 29.81054688 37.89648438 C26.49462469 37.88788053 23.17889577 37.87103625 19.86303711 37.84887695 C16.65960675 37.83436241 13.45729675 37.84960622 10.25390625 37.8671875 C9.26419327 37.85070663 8.27448029 37.83422577 7.254776 37.81724548 C2.91829796 37.8487158 0.29329736 38.04596356 -3.5065918 40.25 C-6.33572787 45.07058466 -6.0139939 49.44646646 -5.8984375 54.9375 C-5.89373444 56.05293686 -5.88903137 57.16837372 -5.88418579 58.31761169 C-5.86285528 61.87773614 -5.80624795 65.43636792 -5.75 68.99609375 C-5.73349144 71.39647034 -5.71914375 73.79686283 -5.70703125 76.19726562 C-5.67308883 80.59077119 -5.63811257 84.98411016 -5.56787109 89.37719727 C-5.55501068 90.25924332 -5.54215027 91.14128937 -5.52890015 92.05006409 C-5.38346943 94.30242337 -5.00168879 96.27079429 -4.375 98.43359375 C-1.40562357 99.28847138 1.24426388 99.56224911 4.33007812 99.57543945 C5.7217218 99.58599113 5.7217218 99.58599113 7.14147949 99.59675598 C8.63379089 99.6030024 8.63379089 99.6030024 10.15625 99.609375 C12.26693717 99.63256312 14.3776143 99.65668003 16.48828125 99.68164062 C19.81305772 99.71682214 23.13746192 99.74614389 26.46240234 99.75952148 C29.67330692 99.77496538 32.8831301 99.8151395 36.09375 99.859375 C37.08862427 99.85746658 38.08349854 99.85555817 39.10852051 99.85359192 C45.88032769 99.97396049 45.88032769 99.97396049 49.25219727 102.05517578 C51.07201212 105.20805437 51.12682658 107.42763722 51.12109375 111.0625 C51.12173828 112.34447266 51.12238281 113.62644531 51.12304688 114.94726562 C51.10745728 115.94391235 51.10745728 115.94391235 51.09155273 116.96069336 C51.06253698 118.993503 51.07096066 121.02371192 51.08398438 123.05664062 C51.01980268 132.8665651 51.01980268 132.8665651 49.46958923 135.09303284 C46.8477197 136.99848461 44.9306954 136.81460982 41.70751953 136.82177734 C40.48839874 136.83123383 39.26927795 136.84069031 38.01321411 136.85043335 C36.67807697 136.84505762 35.34294278 136.83890319 34.0078125 136.83203125 C32.63076626 136.83405429 31.25372106 136.83696765 29.87667847 136.84072876 C26.9831121 136.84515612 24.08982317 136.83871808 21.19628906 136.82470703 C17.52389952 136.80777475 13.85217555 136.81735041 10.17981148 136.83542442 C7.32951062 136.84638947 4.47936105 136.84275583 1.62905502 136.83504105 C-0.37188402 136.83211576 -2.37282938 136.84109751 -4.37374878 136.85043335 C-16.59473708 136.75802679 -28.58951263 135.34453258 -38.375 127.43359375 C-47.28994437 118.33327246 -49.46689139 108.69555084 -49.53613281 96.18823242 C-49.54109772 95.50101608 -49.54606262 94.81379974 -49.55117798 94.10575867 C-49.56566569 91.8543494 -49.57257862 89.60301053 -49.578125 87.3515625 C-49.58095238 86.57611902 -49.58377975 85.80067554 -49.58669281 85.00173378 C-49.60163015 80.89885753 -49.61089434 76.79601596 -49.61523438 72.69311523 C-49.62071438 68.48031013 -49.64474805 64.26782894 -49.67320633 60.05512524 C-49.69193087 56.79237469 -49.69704348 53.52970073 -49.69857025 50.26690102 C-49.70157464 48.71493062 -49.70952723 47.16296085 -49.72275543 45.61104393 C-49.82983087 32.08523705 -48.36177806 20.84266123 -38.67578125 10.64453125 C-28.14605699 1.03763676 -13.62523717 -0.03174967 0 0 Z " fill="#F55F24" transform="translate(2764.375,1322.56640625)"/>
<path d="M0 0 C3.35729708 0.00718029 6.7126829 -0.00898346 10.06973553 -0.03791714 C13.29885635 -0.0606375 16.52789804 -0.05381985 19.75708008 -0.05004883 C20.95805832 -0.06128281 22.15903656 -0.07251678 23.39640808 -0.08409119 C24.5088942 -0.07471024 25.62138031 -0.06532928 26.76757812 -0.05566406 C27.74381638 -0.05549789 28.72005463 -0.05533173 29.72587585 -0.05516052 C33.05536649 0.59114785 34.24404306 1.80282077 36.30786133 4.44604492 C36.82543945 7.4987793 36.82543945 7.4987793 36.83911133 11.03979492 C36.8468457 12.95598633 36.8468457 12.95598633 36.85473633 14.91088867 C36.84216797 15.90451416 36.84216797 15.90451416 36.8293457 16.91821289 C36.80792082 18.9404294 36.82915872 20.95909453 36.85473633 22.98120117 C36.84958008 24.25866211 36.84442383 25.53612305 36.83911133 26.85229492 C36.83459961 28.02083008 36.83008789 29.18936523 36.82543945 30.39331055 C36.30786133 33.44604492 36.30786133 33.44604492 34.93066406 35.83105469 C30.75137021 38.404454 26.62087168 37.94974138 21.81176758 37.87963867 C19.70564705 37.88924405 17.59952727 37.89901476 15.4934082 37.90893555 C12.17748602 37.9003317 8.86175709 37.88348742 5.54589844 37.86132812 C2.34246808 37.84681359 -0.85984192 37.86205739 -4.06323242 37.87963867 C-5.0529454 37.86315781 -6.04265839 37.84667694 -7.06236267 37.82969666 C-11.39884071 37.86116697 -14.02384131 38.05841474 -17.82373047 40.26245117 C-20.65286655 45.08303584 -20.33113257 49.45891763 -20.21557617 54.94995117 C-20.21087311 56.06538803 -20.20617004 57.18082489 -20.20132446 58.33006287 C-20.17999395 61.89018732 -20.12338662 65.44881909 -20.06713867 69.00854492 C-20.05063011 71.40892151 -20.03628242 73.809314 -20.02416992 76.2097168 C-19.99022751 80.60322236 -19.95525125 84.99656133 -19.88500977 89.38964844 C-19.87214935 90.27169449 -19.85928894 91.15374054 -19.84603882 92.06251526 C-19.7006081 94.31487454 -19.31882746 96.28324546 -18.69213867 98.44604492 C-15.72276225 99.30092255 -13.07287479 99.57470028 -9.98706055 99.58789062 C-8.59541687 99.59844231 -8.59541687 99.59844231 -7.17565918 99.60920715 C-5.68334778 99.61545357 -5.68334778 99.61545357 -4.16088867 99.62182617 C-2.0502015 99.64501429 0.06047563 99.6691312 2.17114258 99.6940918 C5.49591904 99.72927331 8.82032325 99.75859506 12.14526367 99.77197266 C15.35616825 99.78741655 18.56599142 99.82759067 21.77661133 99.87182617 C22.7714856 99.86991776 23.76635986 99.86800934 24.79138184 99.86604309 C31.56318901 99.98641166 31.56318901 99.98641166 34.93505859 102.06762695 C36.75487345 105.22050554 36.80968791 107.44008839 36.80395508 111.07495117 C36.80459961 112.35692383 36.80524414 113.63889648 36.8059082 114.9597168 C36.7903186 115.95636353 36.7903186 115.95636353 36.77441406 116.97314453 C36.74539831 119.00595417 36.75382198 121.03616309 36.7668457 123.0690918 C36.70269932 132.87361963 36.70269932 132.87361963 35.16392517 135.10449219 C32.49419849 137.03415594 30.48156792 136.83414089 27.20678711 136.85009766 C25.31804367 136.86912392 25.31804367 136.86912392 23.3911438 136.88853455 C22.01181882 136.88648102 20.63249496 136.88349127 19.25317383 136.87963867 C17.83128613 136.88420365 16.40940063 136.88951017 14.98751831 136.89552307 C11.99980753 136.90446799 9.01236369 136.90202208 6.0246582 136.89208984 C2.23107454 136.8806971 -1.56156475 136.90065256 -5.35502434 136.93000698 C-8.29798072 136.94854871 -11.24071936 136.94803962 -14.18371964 136.94236946 C-15.57969598 136.94221789 -16.97568869 136.94812357 -18.37160873 136.96066093 C-31.04291075 137.0582905 -43.96025889 135.28456855 -53.69213867 126.44604492 C-63.68700043 115.33847395 -64.15389795 102.76739539 -64.09057617 88.53588867 C-64.09260235 86.91646697 -64.09551829 85.29704617 -64.09927368 83.67762756 C-64.10367023 80.30143453 -64.09735206 76.92548132 -64.08325195 73.54931641 C-64.06614774 69.24689394 -64.07602591 64.9450326 -64.09396935 60.64263058 C-64.10486812 57.30436561 -64.10133332 53.96623125 -64.09358597 50.62796211 C-64.09160147 49.04251601 -64.09398084 47.4570576 -64.10102463 45.8716259 C-64.14755725 32.46060067 -62.83057923 21.09175955 -53.25073242 10.91479492 C-38.91772738 -1.89508425 -17.85288581 -0.0584545 0 0 Z " fill="#F55F25" transform="translate(1552.692138671875,1322.553955078125)"/>
<path d="M0 0 C0.69544922 -0.020625 1.39089844 -0.04125 2.10742188 -0.0625 C7.23435548 -0.10079642 10.77975879 0.80973177 15.3125 3.25 C17.55513373 6.61395059 17.56487629 7.73383335 17.57128906 11.66772461 C17.57759338 12.77574936 17.58389771 13.88377411 17.59039307 15.02537537 C17.5863446 16.22227493 17.58229614 17.4191745 17.578125 18.65234375 C17.58099518 20.49621422 17.58099518 20.49621422 17.58392334 22.37733459 C17.58563444 25.64573201 17.57757779 28.9139398 17.56640625 32.18231201 C17.55994097 35.50112287 17.57527471 38.8198786 17.5859375 42.13867188 C17.58461573 44.6640635 17.58205298 47.18945484 17.578125 49.71484375 C17.58217346 50.90971909 17.58622192 52.10459442 17.59039307 53.3356781 C17.58408875 54.44685501 17.57778442 55.55803192 17.57128906 56.70288086 C17.56969788 57.67978378 17.56810669 58.65668671 17.56646729 59.66319275 C17.29985035 62.37884415 16.79595043 63.97392861 15.3125 66.25 C10.75119726 69.25014258 6.64304147 69.71517833 1.3125 69.625 C0.28382813 69.64240234 0.28382813 69.64240234 -0.765625 69.66015625 C-5.46073793 69.63327583 -8.76139585 68.83234827 -12.6875 66.25 C-14.74687214 63.07850708 -14.95294677 60.47123668 -14.99389648 56.73461914 C-15.00988388 55.62989761 -15.02587128 54.52517609 -15.04234314 53.38697815 C-15.04770584 52.19837692 -15.05306854 51.0097757 -15.05859375 49.78515625 C-15.06762222 48.55969589 -15.0766507 47.33423553 -15.08595276 46.07164001 C-15.10045923 43.48015793 -15.10934297 40.88863919 -15.11303711 38.29711914 C-15.12494471 34.33091713 -15.17414043 30.36626482 -15.22460938 26.40039062 C-15.23407216 23.8828201 -15.24130788 21.36524001 -15.24609375 18.84765625 C-15.26562607 17.66107925 -15.28515839 16.47450226 -15.30528259 15.25196838 C-15.25504736 6.09488047 -15.25504736 6.09488047 -12.27758789 3.02514648 C-8.08137268 0.1492222 -4.97519054 0.03588956 0 0 Z " fill="#FEFCFB" transform="translate(2909.6875,1356.75)"/>
<path d="M0 0 C0.69544922 -0.020625 1.39089844 -0.04125 2.10742188 -0.0625 C7.23435548 -0.10079642 10.77975879 0.80973177 15.3125 3.25 C17.55513373 6.61395059 17.56487629 7.73383335 17.57128906 11.66772461 C17.57759338 12.77574936 17.58389771 13.88377411 17.59039307 15.02537537 C17.5863446 16.22227493 17.58229614 17.4191745 17.578125 18.65234375 C17.58099518 20.49621422 17.58099518 20.49621422 17.58392334 22.37733459 C17.58563444 25.64573201 17.57757779 28.9139398 17.56640625 32.18231201 C17.55994097 35.50112287 17.57527471 38.8198786 17.5859375 42.13867188 C17.58461573 44.6640635 17.58205298 47.18945484 17.578125 49.71484375 C17.58217346 50.90971909 17.58622192 52.10459442 17.59039307 53.3356781 C17.58408875 54.44685501 17.57778442 55.55803192 17.57128906 56.70288086 C17.56969788 57.67978378 17.56810669 58.65668671 17.56646729 59.66319275 C17.29985035 62.37884415 16.79595043 63.97392861 15.3125 66.25 C10.75119726 69.25014258 6.64304147 69.71517833 1.3125 69.625 C0.28382812 69.64240234 0.28382812 69.64240234 -0.765625 69.66015625 C-5.46073793 69.63327583 -8.76139585 68.83234827 -12.6875 66.25 C-14.74687214 63.07850708 -14.95294677 60.47123668 -14.99389648 56.73461914 C-15.00988388 55.62989761 -15.02587128 54.52517609 -15.04234314 53.38697815 C-15.04770584 52.19837692 -15.05306854 51.0097757 -15.05859375 49.78515625 C-15.06762222 48.55969589 -15.0766507 47.33423553 -15.08595276 46.07164001 C-15.10045923 43.48015793 -15.10934297 40.88863919 -15.11303711 38.29711914 C-15.12494471 34.33091713 -15.17414043 30.36626482 -15.22460938 26.40039062 C-15.23407216 23.8828201 -15.24130788 21.36524001 -15.24609375 18.84765625 C-15.26562607 17.66107925 -15.28515839 16.47450226 -15.30528259 15.25196838 C-15.25504736 6.09488047 -15.25504736 6.09488047 -12.27758789 3.02514648 C-8.08137268 0.1492222 -4.97519054 0.03588956 0 0 Z " fill="#FEFCFB" transform="translate(1683.6875,1356.75)"/>
<path d="M0 0 C5.69423371 5.1765761 8.00006532 11.53259315 8.3984375 19.109375 C8.59517919 29.01059059 8.67367496 39.28286482 1.5 47 C-3.18436389 50.60335684 -8.25105466 50.49598467 -13.9375 49.875 C-19.05391087 47.50629127 -21.88490207 44.07634763 -23.9375 38.875 C-24.54432731 36.0431392 -24.82989551 33.73548612 -24.9375 30.875 C-24.9890625 29.72257812 -25.040625 28.57015625 -25.09375 27.3828125 C-25.31116627 18.37815524 -24.97542207 10.57887934 -20 2.875 C-14.58995408 -2.37110513 -6.87139506 -2.63159811 0 0 Z " fill="#FDFDFD" transform="translate(2211.9375,1574.125)"/>
<path d="M0 0 C3.85061184 3.31580464 6.64099381 7.11048144 8.25 11.9375 C8.50944988 15.82885502 8.481444 19.72591978 8.5 23.625 C8.520625 24.68912109 8.54125 25.75324219 8.5625 26.84960938 C8.59534999 33.49762698 8.58602385 40.28074883 3.83300781 45.49072266 C-0.79844822 49.54074667 -4.61872882 50.23864496 -10.53515625 50.15234375 C-14.85651919 49.73316392 -17.04618591 47.68153204 -19.9375 44.625 C-24.3026365 38.15255622 -24.11580339 31.61291378 -24.125 24.0625 C-24.16173828 22.48662109 -24.16173828 22.48662109 -24.19921875 20.87890625 C-24.22363391 14.37633515 -23.58494164 9.32325669 -19.75 3.9375 C-14.15116003 -1.38822583 -7.2722726 -2.80974168 0 0 Z " fill="#FBFBFB" transform="translate(2651.75,1574.0625)"/>
<path d="M0 0 C16 0 16 0 22 3 C28.52119938 9.81761753 29.36226617 15.17077927 29.375 24.25 C29.39949219 25.15363281 29.42398437 26.05726562 29.44921875 26.98828125 C29.48317167 34.85404175 27.63275361 40.90651451 22.5 46.9375 C14.88964211 53.21604526 11.96539542 51 0 51 C0 34.17 0 17.34 0 0 Z " fill="#FCFCFC" transform="translate(1325,1573)"/>
<path d="M0 0 C1.23234375 -0.02578125 2.4646875 -0.0515625 3.734375 -0.078125 C8.7800669 0.39280624 11.21826895 2.10673046 14.5625 5.8125 C16.82175422 10.41468453 17.07081117 14.21021943 16.25 19.25 C14.1719036 23.25775735 11.54616577 26.18927464 8.25 29.25 C8.83265625 29.91644531 9.4153125 30.58289062 10.015625 31.26953125 C12.5627365 34.66716424 14.25894801 38.08551587 16 41.9375 C16.31582031 42.61361328 16.63164063 43.28972656 16.95703125 43.98632812 C19.25 48.97427963 19.25 48.97427963 19.25 51.25 C17.27 51.25 15.29 51.25 13.25 51.25 C12.94296143 50.5887915 12.63592285 49.92758301 12.31958008 49.24633789 C10.91943913 46.25910759 9.49148373 43.28603354 8.0625 40.3125 C7.33836914 38.75112305 7.33836914 38.75112305 6.59960938 37.15820312 C6.11943359 36.16884766 5.63925781 35.17949219 5.14453125 34.16015625 C4.70987549 33.24371338 4.27521973 32.32727051 3.82739258 31.38305664 C2.17827253 28.65341609 2.17827253 28.65341609 -2.75 28.25 C-2.75 35.84 -2.75 43.43 -2.75 51.25 C-4.4 51.25 -6.05 51.25 -7.75 51.25 C-7.77526787 44.14755001 -7.79283201 37.04511152 -7.80493164 29.94262695 C-7.80997349 27.52432828 -7.81680678 25.10603267 -7.82543945 22.68774414 C-7.83751157 19.22020717 -7.84322963 15.75271034 -7.84765625 12.28515625 C-7.85281754 11.19662857 -7.85797882 10.10810089 -7.86329651 8.98658752 C-7.86337204 7.98562546 -7.86344757 6.98466339 -7.86352539 5.95336914 C-7.865746 5.06734512 -7.86796661 4.18132111 -7.87025452 3.26844788 C-7.60196295 -1.2347721 -3.69221783 0.04596122 0 0 Z " fill="#505050" transform="translate(1514.75,1572.75)"/>
<path d="M0 0 C1.32 0 2.64 0 4 0 C6.22582818 3.87655834 8.44946451 7.75436319 10.67114258 11.63330078 C11.42608572 12.95069676 12.18161033 14.26775971 12.93774414 15.58447266 C14.02906589 17.48511344 15.11824024 19.38697109 16.20703125 21.2890625 C16.8616333 22.43068848 17.51623535 23.57231445 18.19067383 24.74853516 C19.8806927 27.78559781 21.44565684 30.89131368 23 34 C23.33 22.78 23.66 11.56 24 0 C25.65 0 27.3 0 29 0 C29 16.83 29 33.66 29 51 C25 50 25 50 23.34008789 47.75024414 C22.53945923 46.28252563 22.53945923 46.28252563 21.72265625 44.78515625 C21.12646484 43.70556641 20.53027344 42.62597656 19.91601562 41.51367188 C19.30435547 40.37478516 18.69269531 39.23589844 18.0625 38.0625 C17.45470703 36.95841797 16.84691406 35.85433594 16.22070312 34.71679688 C12.65706373 28.20844574 9.32219115 21.6443823 6 15 C5.67 26.88 5.34 38.76 5 51 C3.35 51 1.7 51 0 51 C0 34.17 0 17.34 0 0 Z " fill="#545454" transform="translate(2725,1573)"/>
<path d="M0 0 C1.32 0 2.64 0 4 0 C10.66666667 11.66666667 17.33333333 23.33333333 24 35 C24 23.45 24 11.9 24 0 C25.65 0 27.3 0 29 0 C29 16.83 29 33.66 29 51 C25 50 25 50 23.34008789 47.75024414 C22.53945923 46.28252563 22.53945923 46.28252563 21.72265625 44.78515625 C21.12646484 43.70556641 20.53027344 42.62597656 19.91601562 41.51367188 C19.30435547 40.37478516 18.69269531 39.23589844 18.0625 38.0625 C17.45470703 36.95841797 16.84691406 35.85433594 16.22070312 34.71679688 C12.65706373 28.20844574 9.32219115 21.6443823 6 15 C5.67 26.88 5.34 38.76 5 51 C3.35 51 1.7 51 0 51 C0 34.17 0 17.34 0 0 Z " fill="#545454" transform="translate(1933,1573)"/>
<path d="M0 0 C5.69423371 5.1765761 8.00006532 11.53259315 8.3984375 19.109375 C8.59517919 29.01059059 8.67367496 39.28286482 1.5 47 C-3.18436389 50.60335684 -8.25105466 50.49598467 -13.9375 49.875 C-19.05391087 47.50629127 -21.88490207 44.07634763 -23.9375 38.875 C-24.54432731 36.0431392 -24.82989551 33.73548612 -24.9375 30.875 C-24.9890625 29.72257812 -25.040625 28.57015625 -25.09375 27.3828125 C-25.31116627 18.37815524 -24.97542207 10.57887934 -20 2.875 C-14.58995408 -2.37110513 -6.87139506 -2.63159811 0 0 Z M-14.75 6 C-18.96390695 11.53827771 -19.29758875 16.97958549 -19.25 23.6875 C-19.24581055 24.48486572 -19.24162109 25.28223145 -19.23730469 26.10375977 C-19.11005737 32.72535812 -18.66258143 38.66329688 -14.1875 43.9375 C-10.84291149 45.33107855 -8.52337629 45.37828088 -4.9375 44.875 C-0.74342135 41.70614057 0.75805089 38.88017699 2.0625 33.875 C2.38645493 30.76646453 2.44333332 27.68639628 2.4375 24.5625 C2.43661377 23.71888916 2.43572754 22.87527832 2.43481445 22.00610352 C2.32225601 16.10449856 1.82131457 10.68980261 -1.9375 5.875 C-6.56428027 2.79047982 -10.24745833 2.59807963 -14.75 6 Z " fill="#535353" transform="translate(2211.9375,1574.125)"/>
<path d="M0 0 C3.85061184 3.31580464 6.64099381 7.11048144 8.25 11.9375 C8.50944988 15.82885502 8.481444 19.72591978 8.5 23.625 C8.520625 24.68912109 8.54125 25.75324219 8.5625 26.84960938 C8.59534999 33.49762698 8.58602385 40.28074883 3.83300781 45.49072266 C-0.79844822 49.54074667 -4.61872882 50.23864496 -10.53515625 50.15234375 C-14.85651919 49.73316392 -17.04618591 47.68153204 -19.9375 44.625 C-24.3026365 38.15255622 -24.11580339 31.61291378 -24.125 24.0625 C-24.16173828 22.48662109 -24.16173828 22.48662109 -24.19921875 20.87890625 C-24.22363391 14.37633515 -23.58494164 9.32325669 -19.75 3.9375 C-14.15116003 -1.38822583 -7.2722726 -2.80974168 0 0 Z M-16.75 8.9375 C-19.99320625 18.22563517 -20.09271123 29.70524993 -16.75 38.9375 C-15.28603271 41.60237796 -14.11104183 42.83879615 -11.75 44.9375 C-7.55292231 45.68697816 -5.59511509 45.44456905 -1.9375 43.25 C4.04145663 36.9293887 3.59123697 27.65586197 3.5390625 19.4296875 C3.0827408 13.91682801 1.35002553 9.50811949 -2.14453125 5.23046875 C-4.49554512 3.33707315 -6.81894009 3.39897508 -9.75 3.5390625 C-13.4173628 4.26966993 -14.6865602 5.9030297 -16.75 8.9375 Z " fill="#515151" transform="translate(2651.75,1574.0625)"/>
<path d="M0 0 C16 0 16 0 22 3 C28.52119938 9.81761753 29.36226617 15.17077927 29.375 24.25 C29.39949219 25.15363281 29.42398437 26.05726562 29.44921875 26.98828125 C29.48317167 34.85404175 27.63275361 40.90651451 22.5 46.9375 C14.88964211 53.21604526 11.96539542 51 0 51 C0 34.17 0 17.34 0 0 Z M5 5 C5 18.53 5 32.06 5 46 C13.18089332 46.60225779 13.18089332 46.60225779 19 43 C24.15965408 34.60463065 25.37062879 26.00431622 23.46875 16.28515625 C22.14576413 11.96388174 20.71608765 8.78706574 17 6 C13.10402133 4.52565835 13.10402133 4.52565835 5 5 Z " fill="#4F4F4F" transform="translate(1325,1573)"/>
<path d="M0 0 C1.98 0 3.96 0 6 0 C6.01458252 1.15000488 6.02916504 2.30000977 6.04418945 3.48486328 C6.10233762 7.76788805 6.17956924 12.05039616 6.26245117 16.33300781 C6.29562296 18.18350819 6.32367887 20.03410786 6.34643555 21.88476562 C6.3801245 24.55121003 6.4324466 27.2167509 6.48828125 29.8828125 C6.49467117 30.70492218 6.5010611 31.52703186 6.50764465 32.37405396 C6.63292404 37.3130131 7.38095163 40.66439256 10 45 C11.43489809 45.13536774 12.87347107 45.23217143 14.3125 45.3125 C15.51326172 45.39951172 15.51326172 45.39951172 16.73828125 45.48828125 C19.16705974 45.20860629 19.16705974 45.20860629 20.609375 43.046875 C22.50330124 38.89726133 22.47776155 35.27422702 22.51171875 30.76171875 C22.52966995 29.88095169 22.54762115 29.00018463 22.56611633 28.09272766 C22.6201191 25.2910332 22.65408266 22.48950813 22.6875 19.6875 C22.72068195 17.78317961 22.75517243 15.87888154 22.79101562 13.97460938 C22.87583978 9.31652866 22.94269874 4.6584973 23 0 C24.65 0 26.3 0 28 0 C28.09911689 5.87153231 28.17158611 11.74257413 28.21972656 17.61474609 C28.23980169 19.61092618 28.26706789 21.60704775 28.30175781 23.60302734 C28.35045657 26.4776862 28.37300986 29.3515654 28.390625 32.2265625 C28.41127014 33.11429352 28.43191528 34.00202454 28.45318604 34.91665649 C28.45517877 40.45984572 27.7049897 43.60385758 24 48 C20.286306 51.18316629 16.93713341 51.47755892 12.2109375 51.2734375 C8.8006743 50.8516735 6.76786596 50.05980722 4 48 C0.07603929 42.37716954 -0.55649859 37.16680657 -0.390625 30.46875 C-0.38496521 29.59222778 -0.37930542 28.71570557 -0.37347412 27.81262207 C-0.35126636 25.04116812 -0.3011016 22.27105635 -0.25 19.5 C-0.22991474 17.60939381 -0.21166754 15.71876714 -0.1953125 13.828125 C-0.15145307 9.21824094 -0.08253652 4.6093472 0 0 Z " fill="#565656" transform="translate(2371,1573)"/>
<path d="M0 0 C0.91644287 0.00523682 1.83288574 0.01047363 2.77709961 0.01586914 C3.76645508 0.0190918 4.75581055 0.02231445 5.77514648 0.02563477 C6.81606445 0.03401367 7.85698242 0.04239258 8.92944336 0.05102539 C10.49662109 0.05779297 10.49662109 0.05779297 12.09545898 0.06469727 C14.68600996 0.07652627 17.27644895 0.0930085 19.86694336 0.11352539 C19.86694336 2.09352539 19.86694336 4.07352539 19.86694336 6.11352539 C14.25694336 6.11352539 8.64694336 6.11352539 2.86694336 6.11352539 C2.86694336 11.39352539 2.86694336 16.67352539 2.86694336 22.11352539 C7.81694336 22.11352539 12.76694336 22.11352539 17.86694336 22.11352539 C17.86694336 23.76352539 17.86694336 25.41352539 17.86694336 27.11352539 C12.91694336 27.11352539 7.96694336 27.11352539 2.86694336 27.11352539 C2.86694336 33.05352539 2.86694336 38.99352539 2.86694336 45.11352539 C8.47694336 45.11352539 14.08694336 45.11352539 19.86694336 45.11352539 C19.86694336 47.09352539 19.86694336 49.07352539 19.86694336 51.11352539 C16.22112649 51.14240051 12.57533873 51.16028124 8.92944336 51.17602539 C7.36806641 51.18859375 7.36806641 51.18859375 5.77514648 51.20141602 C4.78579102 51.20463867 3.79643555 51.20786133 2.77709961 51.21118164 C1.4024353 51.21903687 1.4024353 51.21903687 0 51.22705078 C-2.13305664 51.11352539 -2.13305664 51.11352539 -3.13305664 50.11352539 C-3.23144878 48.58417909 -3.26104203 47.05032973 -3.26245117 45.51782227 C-3.26560333 44.54010864 -3.26875549 43.56239502 -3.27200317 42.55505371 C-3.26997894 41.49153687 -3.26795471 40.42802002 -3.26586914 39.33227539 C-3.26682587 38.24845581 -3.26778259 37.16463623 -3.26876831 36.04797363 C-3.26945029 33.75130149 -3.26759475 31.45462744 -3.26342773 29.15795898 C-3.25807976 25.62878111 -3.26337214 22.09973052 -3.26977539 18.57055664 C-3.26911461 16.34529594 -3.26783346 14.12003532 -3.26586914 11.89477539 C-3.26789337 10.83125854 -3.2699176 9.7677417 -3.27200317 8.67199707 C-3.26885101 7.69428345 -3.26569885 6.71656982 -3.26245117 5.70922852 C-3.26165558 4.8439856 -3.26085999 3.97874268 -3.26004028 3.08728027 C-3.08118671 0.30729143 -2.78244174 0.14808692 0 0 Z " fill="#606060" transform="translate(1848.133056640625,1572.886474609375)"/>
<path d="M0 0 C7.26 0 14.52 0 22 0 C22 1.98 22 3.96 22 6 C16.72 6 11.44 6 6 6 C6 11.28 6 16.56 6 22 C10.95 22 15.9 22 21 22 C21 23.65 21 25.3 21 27 C16.05 27 11.1 27 6 27 C6 32.94 6 38.88 6 45 C11.61 45 17.22 45 23 45 C23 46.98 23 48.96 23 51 C15.41 51 7.82 51 0 51 C0 34.17 0 17.34 0 0 Z " fill="#5F5F5F" transform="translate(1419,1573)"/>
<path d="M0 0 C7.26 0 14.52 0 22 0 C22 1.65 22 3.3 22 5 C16.39 5 10.78 5 5 5 C5 10.61 5 16.22 5 22 C10.28 22 15.56 22 21 22 C21 23.65 21 25.3 21 27 C15.72 27 10.44 27 5 27 C5 33.27 5 39.54 5 46 C10.61 46 16.22 46 22 46 C22 47.65 22 49.3 22 51 C14.74 51 7.48 51 0 51 C0 34.17 0 17.34 0 0 Z " fill="#545454" transform="translate(2821,1573)"/>
<path d="M0 0 C0.92941406 -0.00515625 1.85882812 -0.0103125 2.81640625 -0.015625 C5.4929462 0.25561899 7.14188282 0.88883405 9.4375 2.25 C9.1075 3.57 8.7775 4.89 8.4375 6.25 C3.1575 6.25 -2.1225 6.25 -7.5625 6.25 C-8.12470402 9.79188531 -8.4148155 11.83557245 -7.5625 15.25 C-4.61454828 18.73700574 -1.14397101 21.43755651 2.4375 24.25 C6.81370909 28.17631843 10.15384883 31.64986426 10.8125 37.6875 C10.30693796 42.49033933 9.05142138 45.78738375 5.4375 49.0625 C1.76174428 51.24497996 -1.30889391 51.411597 -5.5 51.4375 C-6.54027344 51.45167969 -7.58054687 51.46585938 -8.65234375 51.48046875 C-11.51296613 51.25392282 -13.13920151 50.72733619 -15.5625 49.25 C-14.9025 47.6 -14.2425 45.95 -13.5625 44.25 C-12.5725 44.58 -11.5825 44.91 -10.5625 45.25 C-8.73287564 45.39328384 -6.89748763 45.47040343 -5.0625 45.5 C-3.62390625 45.53867188 -3.62390625 45.53867188 -2.15625 45.578125 C0.44836433 45.45727527 0.44836433 45.45727527 2.234375 43.96484375 C3.90993621 41.57662502 4.21253881 39.31922861 4.1171875 36.4375 C2.66773954 31.77261001 -1.80686994 29.09126915 -5.5625 26.25 C-10.29980655 22.61604049 -13.88984841 19.46860501 -14.87890625 13.265625 C-15.08785098 9.67986381 -14.69373458 7.47358484 -12.875 4.375 C-8.94764101 0.76607552 -5.25180817 -0.02921729 0 0 Z " fill="#545454" transform="translate(2921.5625,1572.75)"/>
<path d="M0 0 C7.26 0 14.52 0 22 0 C22 1.65 22 3.3 22 5 C16.39 5 10.78 5 5 5 C5 10.61 5 16.22 5 22 C10.28 22 15.56 22 21 22 C21 23.65 21 25.3 21 27 C15.72 27 10.44 27 5 27 C5 33.27 5 39.54 5 46 C10.61 46 16.22 46 22 46 C22 47.32 22 48.64 22 50 C14.74 50 7.48 50 0 50 C0 33.5 0 17 0 0 Z " fill="#515151" transform="translate(1598,1573)"/>
<path d="M0 0 C1.04929687 -0.01417969 2.09859375 -0.02835938 3.1796875 -0.04296875 C6.06047071 0.18245063 7.68740208 0.69785683 10.125 2.1875 C9.795 3.8375 9.465 5.4875 9.125 7.1875 C8.57070312 7.02636719 8.01640625 6.86523438 7.4453125 6.69921875 C4.90757692 6.13954979 2.59721447 6.0193822 0 6 C-0.86882813 5.98582031 -1.73765625 5.97164062 -2.6328125 5.95703125 C-5.07829726 5.97006395 -5.07829726 5.97006395 -6.875 8.1875 C-7.33952878 11.67146587 -7.23599507 13.57537793 -5.4375 16.625 C-2.49639352 19.56610648 0.68493571 21.97781331 4 24.48046875 C7.08620562 26.95964495 9.3583585 29.654217 11.125 33.1875 C11.7128933 38.84032017 11.43975894 43.38681464 8.125 48.1875 C4.07918345 51.25648877 1.01720087 51.5692395 -4 51.5 C-5.82917969 51.49419922 -5.82917969 51.49419922 -7.6953125 51.48828125 C-10.875 51.1875 -10.875 51.1875 -13.875 49.1875 C-13.545 47.5375 -13.215 45.8875 -12.875 44.1875 C-12.0396875 44.42533203 -12.0396875 44.42533203 -11.1875 44.66796875 C-6.1167617 45.80717178 -0.75835346 46.35338548 3.75 43.5625 C5.55796709 40.43964775 5.70622986 38.74753292 5.125 35.1875 C2.47318698 30.69094749 -1.65127136 27.98880172 -5.75 24.89453125 C-9.34920983 22.00325423 -12.56551682 18.68547141 -13.1484375 13.98046875 C-13.42458678 6.89617769 -13.42458678 6.89617769 -10.5 3.125 C-6.67655042 0.30293007 -4.72451054 0.02887843 0 0 Z " fill="#525252" transform="translate(2112.875,1572.8125)"/>
<path d="M0 0 C1.04929687 -0.01417969 2.09859375 -0.02835938 3.1796875 -0.04296875 C6.06047071 0.18245063 7.68740208 0.69785683 10.125 2.1875 C9.795 3.8375 9.465 5.4875 9.125 7.1875 C8.57070312 7.02636719 8.01640625 6.86523438 7.4453125 6.69921875 C4.90757692 6.13954979 2.59721447 6.0193822 0 6 C-0.86882812 5.98582031 -1.73765625 5.97164062 -2.6328125 5.95703125 C-5.07829726 5.97006395 -5.07829726 5.97006395 -6.875 8.1875 C-7.33952878 11.67146587 -7.23599507 13.57537793 -5.4375 16.625 C-3.18992366 18.87257634 -0.97328655 20.6648864 1.5625 22.5625 C6.18287496 26.10021284 10.44876036 29.43863755 11.52734375 35.41796875 C11.73328987 40.3359621 10.97311431 44.0626448 8.125 48.1875 C4.07918345 51.25648877 1.01720087 51.5692395 -4 51.5 C-5.82917969 51.49419922 -5.82917969 51.49419922 -7.6953125 51.48828125 C-10.875 51.1875 -10.875 51.1875 -13.875 49.1875 C-13.545 47.5375 -13.215 45.8875 -12.875 44.1875 C-12.0396875 44.42533203 -12.0396875 44.42533203 -11.1875 44.66796875 C-6.1167617 45.80717178 -0.75835346 46.35338548 3.75 43.5625 C5.55796709 40.43964775 5.70622986 38.74753292 5.125 35.1875 C2.96107086 31.51822885 0.02952593 29.28993971 -3.3125 26.75 C-12.42035855 19.73123772 -12.42035855 19.73123772 -13.34765625 14.54296875 C-13.604192 9.62932255 -13.53577628 7.05694247 -10.5 3.0625 C-6.66564729 0.32367664 -4.69204881 0.02868 0 0 Z " fill="#525252" transform="translate(1697.875,1572.8125)"/>
<path d="M0 0 C1.14726562 0.00644531 2.29453125 0.01289062 3.4765625 0.01953125 C6.375 0.1875 6.375 0.1875 8.375 1.1875 C8.045 2.8375 7.715 4.4875 7.375 6.1875 C6.56675781 6.12949219 5.75851563 6.07148437 4.92578125 6.01171875 C-1.82271196 5.59170943 -1.82271196 5.59170943 -7.75 8.375 C-11.56065785 14.09098678 -11.98955599 18.78972598 -12 25.5 C-12.02449219 26.31662109 -12.04898438 27.13324219 -12.07421875 27.97460938 C-12.10194743 33.77452553 -11.05905848 38.41539295 -7.625 43.1875 C-4.36504414 45.36080391 -3.39520034 45.43671459 0.375 45.375 C1.24125 45.36855469 2.1075 45.36210938 3 45.35546875 C5.52427465 45.27580437 5.52427465 45.27580437 8.375 44.1875 C8.5625 46.5625 8.5625 46.5625 8.375 49.1875 C3.90124325 52.1700045 -0.37956808 51.66845651 -5.625 51.1875 C-10.38060658 49.54465409 -13.02440598 47.49193147 -15.625 43.1875 C-19.77247524 32.80991174 -20.30144641 20.90108217 -16.609375 10.3125 C-13.04449237 2.61688036 -8.33846328 -0.10352494 0 0 Z " fill="#535353" transform="translate(2482.625,1572.8125)"/>
<path d="M0 0 C1.98 0 3.96 0 6 0 C6 15.18 6 30.36 6 46 C11.94 46 17.88 46 24 46 C24 47.65 24 49.3 24 51 C16.08 51 8.16 51 0 51 C0 34.17 0 17.34 0 0 Z " fill="#5E5E5E" transform="translate(1164,1573)"/>
<path d="M0 0 C1.65 0 3.3 0 5 0 C5 14.52 5 29.04 5 44 C11.27 44 17.54 44 24 44 C24 45.98 24 47.96 24 50 C16.08 50 8.16 50 0 50 C0 33.5 0 17 0 0 Z " fill="#555555" transform="translate(2285,1574)"/>
<path d="M0 0 C1.98 0 3.96 0 6 0 C6 16.83 6 33.66 6 51 C4.02 51 2.04 51 0 51 C0 34.17 0 17.34 0 0 Z " fill="#606060" transform="translate(2556,1573)"/>
<path d="M0 0 C1.65 0 3.3 0 5 0 C5 16.17 5 32.34 5 49 C3.35 49 1.7 49 0 49 C0 32.83 0 16.66 0 0 Z " fill="#4A4A4A" transform="translate(1252,1574)"/>
<path d="M0 0 C8 0 8 0 11 1.9375 C13.33198013 5.50834457 13.74267565 7.64506019 13.4765625 11.83984375 C12.65870267 15.54702808 11.13836313 16.97314048 8 19 C5.36 19 2.72 19 0 19 C0 12.73 0 6.46 0 0 Z " fill="#F9F9F9" transform="translate(1512,1578)"/>
<path d="M0 0 C0.33 0 0.66 0 1 0 C1 21.78 1 43.56 1 66 C0.67 66 0.34 66 0 66 C-0.33 46.2 -0.66 26.4 -1 6 C-1.99 6.495 -1.99 6.495 -3 7 C-1.125 2.25 -1.125 2.25 0 0 Z " fill="#FEF1EC" transform="translate(2334,1387)"/>
<path d="M0 0 C3.625 -0.1875 3.625 -0.1875 7 0 C7 3 7 3 5.42578125 4.60546875 C4.37970703 5.38857422 4.37970703 5.38857422 3.3125 6.1875 C2.62800781 6.71730469 1.94351562 7.24710938 1.23828125 7.79296875 C-1.37464398 9.20203314 -3.07442819 9.2305617 -6 9 C-4 6 -2 3 0 0 Z " fill="#5F5F5F" transform="translate(1256,1561)"/>
</svg>
